<svg id="Capa_1" data-name="Capa 1" xmlns="http://www.w3.org/2000/svg" viewBox="0 0 1092.77 316.31"><defs><style>.cls-1{fill:#804f5a;}</style></defs><path class="cls-1" d="M36.32,109.18c0,11.83,4.24,19.29,11.31,23a57.53,57.53,0,0,1-.77-9.52c0-25.84,15.56-44.87,35.88-44.87,13.76,0,21.21,8.74,19.41,22.88-2.44,19.55-21.08,36.78-45,36.78a40.55,40.55,0,0,1-5.79-.39c7.07,25.46,33.18,38.19,60.82,38.19a93.56,93.56,0,0,0,15.69-1.41l.13.51a97.65,97.65,0,0,1-18.39,1.8c-28,0-54.26-12.86-61.08-39.6C36.06,134,28,125.25,28,109.82c0-35.49,42.31-66.09,93.35-66.09A92.17,92.17,0,0,1,147,46.94C153.46,36.14,161.56,32,174,32v.13c-9.78.9-15.57,7.58-20.19,17.1,18.51,7.46,28.67,22.63,28.67,44.1,0,34-25.2,51.05-57,51.05H82.48c-2.7,0-4.76.9-6.94.9-1.67,0-2.83-.51-2.83-1.8s1.16-2.18,3-2.18c2.31,0,8.61,1.28,11.57,1.54,20.7-5.14,30.73-21.86,37.67-40.12l16.21-43.08a79.66,79.66,0,0,1,4-9.25q-11.17-3.87-26.23-3.86C72.58,46.56,36.32,74.72,36.32,109.18ZM60.11,134.9c20.31,0,37.29-16.33,39.6-33.82,1.67-12.86-5.14-21.35-17.36-21.35-18.13,0-32.92,18.39-32.92,43a56.88,56.88,0,0,0,1,10.67A28.64,28.64,0,0,0,60.11,134.9ZM174.16,93.24c0-18.91-7.84-32.41-22.24-39.87L148.83,61,132,105.58c-7,18.26-18,34.08-40,37.93l28.67-1.67C151,140,174.16,125.9,174.16,93.24Z"/><path class="cls-1" d="M256.72,114.45l-3.08,6.69c-5.41,11.7-12.73,24.43-23.54,24.43-7.32,0-11-5.79-10.15-14.66-4.76,8.1-10.8,14.79-19.29,14.79s-13.25-6.82-13.25-19C187.41,103.14,204.9,79,222,79c7.72,0,11.58,4.89,11.58,13.25,3.21,1.28,8.48-6.95,10.8-12.09h.9l-15.43,42.43c-4.12,11.19-3,19.81,2.57,20.06,6,0,13.12-8.87,19.16-21.47l3.21-6.69ZM223.55,81.66c-13.38,0-28.42,24.18-28.42,45.39,0,9.91,3.21,15.69,8.49,15.69,6.55,0,13.76-8.87,17.1-16.71a43.41,43.41,0,0,1,1.8-5.41L231.26,98C232.81,87.32,230,81.66,223.55,81.66Z"/><path class="cls-1" d="M267.27,80.12h7.33l-18.39,51.31L265,113.68C278.2,87.06,286.94,79,295.3,79c10.29,0,12.47,9.77,5.14,25.72l-8.23,17.87c-5.4,11.58-1.67,19.93,4.5,20.19s13.12-9,19.16-21.6l3.22-6.69H321l-3.09,6.69c-5.4,11.7-12.73,24.56-23.79,24.56-10.28,0-16.2-10.67-9.26-25.08l7.72-15.94c7.72-16,6.82-22.25.64-22.25-8.1,0-18.51,16.72-26.74,32.79l-15.05,29.19h-7.59Z"/><path class="cls-1" d="M339.41,80.12,324,122.55c-4,11.06-3,19.93,2.57,20.19,6,0,13.11-9,19.16-21.6l3.21-6.69h1.93l-3.08,6.69c-5.4,11.7-12.74,24.56-23.54,24.56-9.9,0-13.11-10.67-7.58-25.08l15.69-40.5Zm3.34-25.85a5.6,5.6,0,1,1-5.53,5.53A5.57,5.57,0,0,1,342.75,54.27Z"/><path class="cls-1" d="M366,145.7c-11.83,0-18.65-7.07-18.65-19.16C347.38,103,364.87,79,382.23,79c6.94,0,10.16,3.86,10.16,9.52,0,14-20.19,25.46-35.88,26a49.61,49.61,0,0,0-1.41,11.32c0,11.06,4.75,17.1,13.63,17.1,10,0,19.16-7.71,28.93-28.42h1.93C389.69,136.31,379.53,145.7,366,145.7Zm23.91-57.22c0-4.25-2.05-6.82-6.43-6.82-10.67,0-22.11,15.18-26.48,31.25C371.55,112.14,389.94,101.08,389.94,88.48Z"/><path class="cls-1" d="M432.64,38.84l-29.19,81.4c-1.67,4.63-7.33,22.12,1.8,22.5,6,0,13.11-9,19.16-21.6l3.21-6.69h1.93l-3.09,6.69c-5.4,11.7-12.73,24.56-23.78,24.56-9.65,0-12.86-9.77-7.33-25.08l29.44-81.78Z"/><path class="cls-1" d="M495.38,114.45l-3.08,6.69c-5.4,11.7-12.73,24.43-23.53,24.43-7.33,0-11.06-5.79-10.16-14.66-4.76,8.1-10.8,14.79-19.29,14.79s-13.24-6.82-13.24-19c0-23.53,17.48-47.71,34.59-47.71,7.71,0,11.57,4.89,11.57,13.25,3.21,1.28,8.49-6.95,10.8-12.09h.9l-15.43,42.43c-4.11,11.19-3,19.81,2.57,20.06,6,0,13.12-8.87,19.16-21.47l3.22-6.69ZM462.21,81.66c-13.37,0-28.42,24.18-28.42,45.39,0,9.91,3.22,15.69,8.49,15.69,6.56,0,13.76-8.87,17.1-16.71a45.12,45.12,0,0,1,1.8-5.41L469.93,98C471.47,87.32,468.64,81.66,462.21,81.66Z"/><path class="cls-1" d="M541.94,152.39l6.55-17.23c-4.88,6.94-10.15,10.41-15.94,10.41-10.29,0-13.25-10.54-8-24.95l14.66-40.5h7.32l-14.65,42.43c-3.86,11.06-3,19.81,3.47,19.93,5.91.13,12.21-7.07,16.84-17.23l17.23-45.13h6.69l-24.56,66.35c15.17-9.51,29.83-19.8,35.49-32H589c-6.69,14.28-22.89,25.59-38.83,35.49L541.29,174c-4.63,12.47-13.11,19.8-22.63,19.8-6.94,0-10.54-3.86-10.54-9.26C508.12,173.35,524.06,163.31,541.94,152.39Zm-31.25,31.24c0,4,2.44,7.07,6.94,7.07,6.43,0,12-6,17-19.28l5.91-15.56C524.32,165.76,510.69,174.37,510.69,183.63Z"/><path class="cls-1" d="M809.53,66.23l-15.95,39C786,123.71,781.11,134,777.12,141.71c-.9,2.19-.9,4.76-2,6.69-.65,1.16-1.68,1.93-2.7,1.41s-1.42-2.18-.52-3.85c1-1.93,3.09-3,3.35-5.28-.78-13.88-14.28-38.44-14.28-63.13a72.4,72.4,0,0,1,1.93-17.62l-18.39,45.91c-10.8,27.13-28.54,39.86-50.92,39.86-15.43,0-27.39-6.43-33.17-16.85a102.45,102.45,0,0,1-14.15-5.4l.13-.25A95.26,95.26,0,0,0,660,128.08a31.53,31.53,0,0,1-3.47-14.91,35.89,35.89,0,0,1,36-36.14c15.43,0,26.23,9.52,26.23,24.18,0,15.94-12.6,31.63-35.23,31.63a69.66,69.66,0,0,1-14.4-1.67c4.76,7.84,13.5,12,25.08,12,18.38,0,35-10.8,46.93-40.12l21.34-52.46,1.68-3.86a122.28,122.28,0,0,1-18.26,1c-29.06,0-56.32-7.33-73.55-7.33-22.38,0-44.88,12.47-44.88,36.26,0,16.33,10.67,27.39,21.86,28.42v.12c-15.17-1.28-27.52-12.21-27.52-29.83C621.79,50.8,646,37,669.24,37c18.26,0,48.61,8.49,79,8.49,10.29,0,14.79-.64,17.23-1.54,1.67-2.83,3.09-4,4.76-4a1.76,1.76,0,0,1,1.93,1.93c0,1.29-.77,2.44-3.09,3.34a53.33,53.33,0,0,0-4,20.32c0,17.49,11.7,34.72,12,66.61v5c2.06-6.94,4.63-14.53,11.84-31.37l16.45-38.71c11.06-26.1,23.79-36.52,37.68-36v.26C830.1,31.77,820.46,39.62,809.53,66.23Zm-127.3,65.58c21.34,0,33.94-14.14,33.94-29.57,0-13.25-9.25-22.38-22.5-22.38C676.83,79.86,665,94.65,665,114.2a33.69,33.69,0,0,0,3.6,16.07A71.36,71.36,0,0,0,682.23,131.81Z"/><path class="cls-1" d="M823.68,145.7c-11.83,0-18.64-7.07-18.64-19.16C805,103,822.52,79,839.88,79c7,0,10.16,3.86,10.16,9.52,0,14-20.19,25.46-35.87,26a49.08,49.08,0,0,0-1.42,11.32c0,11.06,4.76,17.1,13.63,17.1,10,0,19.16-7.71,28.93-28.42h1.93C847.34,136.31,837.18,145.7,823.68,145.7ZM847.6,88.48c0-4.25-2.06-6.82-6.43-6.82-10.67,0-22.12,15.18-26.49,31.25C829.21,112.14,847.6,101.08,847.6,88.48Z"/><path class="cls-1" d="M890.29,38.84l-29.19,81.4c-1.67,4.63-7.33,22.12,1.8,22.5,6,0,13.12-9,19.16-21.6l3.22-6.69h1.92l-3.08,6.69c-5.4,11.7-12.73,24.56-23.79,24.56-9.65,0-12.86-9.77-7.33-25.08l29.45-81.78Z"/><path class="cls-1" d="M892,143.9c9.78,0,16.33-8.74,16.33-21.6,0-14-7.71-24.82-9-33.18L887,115H885l14.27-29.71c.64-5.27,4.63-11.57,10.55-11.57,2.57,0,4.11,1.41,4.11,3.73,0,4.37-5,8.36-12.47,9.77,1,7.46,15,19.29,15,35A23.58,23.58,0,0,1,906.37,142a41.31,41.31,0,0,0,23.53-20.83l3.21-6.69H935L932,121.14a41.75,41.75,0,0,1-33.69,24.17,23.39,23.39,0,0,1-4.24.39c-13.76,0-21.6-12.22-18.77-27.26h.25C872.93,131.68,880.39,143.9,892,143.9Z"/><path class="cls-1" d="M965.26,79c8.87,0,12.21,7.2,12.21,18.26a61.39,61.39,0,0,1-4.37,22.38,8,8,0,0,0,7.2,4.5c3.09,0,5.4-1.68,6.94-4.89l2.32-4.76h1.93l-2.7,5.79C987,124,983.9,126,980.17,126a10.27,10.27,0,0,1-8.1-4.25c-6.17,13.89-17,23.92-27.26,23.92-8.36,0-13.24-6.56-13.24-19C931.57,103.14,949.05,79,965.26,79Zm-26,48.48c0,10.16,3.47,15.3,9.13,15.3,7.85,0,17-10.16,22.25-23.27-2.57-4.89-3.73-12.35-3.22-21.61.26-5.14,1.29-13.24,3.47-14.78a7.5,7.5,0,0,0-4.5-1.42C954.2,81.66,939.28,106.22,939.28,127.44Z"/><path class="cls-1" d="M1002,80.12h7.33L991,131.43l8.74-17.75C1013,87.06,1021.71,79,1030.07,79c10.28,0,12.47,9.77,5.14,25.72L1027,122.55c-5.4,11.58-1.67,19.93,4.5,20.19s13.12-9,19.16-21.6l3.22-6.69h1.92l-3.08,6.69c-5.4,11.7-12.73,24.56-23.79,24.56-10.29,0-16.2-10.67-9.26-25.08l7.72-15.94c7.71-16,6.81-22.25.64-22.25-8.1,0-18.52,16.72-26.75,32.79l-15,29.19h-7.59Z"/><path class="cls-1" d="M229.62,251.85a25.38,25.38,0,0,1,1.73-9.86,13.76,13.76,0,0,1,4.59-6.16,7.75,7.75,0,0,1,4.59-1.61c2.57,0,4.87,1.31,6.92,3.93q3.83,4.86,3.82,13.19a26,26,0,0,1-1.68,9.9,13,13,0,0,1-4.28,5.91,8.74,8.74,0,0,1-5,1.84q-4.8,0-8-5.65A23,23,0,0,1,229.62,251.85Zm4.84.62a31.69,31.69,0,0,0,1.7,11.29q1.41,3.67,4.2,3.68a4.35,4.35,0,0,0,2.76-1.2,7.66,7.66,0,0,0,2.18-4,49.31,49.31,0,0,0,1.13-12,32.82,32.82,0,0,0-1.18-9.56,8.44,8.44,0,0,0-2.3-4,3.73,3.73,0,0,0-2.44-.82,3.87,3.87,0,0,0-3,1.51c-1.19,1.37-2,3.51-2.42,6.44A59.64,59.64,0,0,0,234.46,252.47Z"/><path class="cls-1" d="M263.33,269.09v-.91a13.21,13.21,0,0,0,6-1.5,15.93,15.93,0,0,0,5.34-5.05,22.24,22.24,0,0,0,3.6-7.92,13.36,13.36,0,0,1-7,2.49,8,8,0,0,1-6.05-2.73,10.26,10.26,0,0,1-2.52-7.25,12.85,12.85,0,0,1,2.52-7.82,9.37,9.37,0,0,1,7.93-4.18,9,9,0,0,1,7.06,3.41,15.46,15.46,0,0,1,3.61,10.42A20.72,20.72,0,0,1,281,258.46a23.07,23.07,0,0,1-7.63,8,15.41,15.41,0,0,1-8.67,2.62Zm15.31-17.21a38.9,38.9,0,0,0,.45-5.14,18.59,18.59,0,0,0-.82-5.17,9.7,9.7,0,0,0-2.31-4.26,4.68,4.68,0,0,0-3.39-1.48,5,5,0,0,0-3.86,2q-1.65,2-1.65,5.88,0,5.2,2.2,8.15a4.78,4.78,0,0,0,3.95,2.12,8.41,8.41,0,0,0,2.69-.54A8.62,8.62,0,0,0,278.64,251.88Z"/><path class="cls-1" d="M314.39,268.4v-.66h.91a2.39,2.39,0,0,0,2.17-1,5.61,5.61,0,0,0,.39-2.64v-15.6a5,5,0,0,0-.49-2.83,2.65,2.65,0,0,0-2.07-.78h-.91v-.66h9.84a21.4,21.4,0,0,1,8.23,1.23,9.72,9.72,0,0,1,4.54,4.09,12.6,12.6,0,0,1,1.72,6.63,12.07,12.07,0,0,1-3.06,8.42q-3.44,3.78-10.47,3.78Zm6.89-1.75a17.78,17.78,0,0,0,3.8.5,9,9,0,0,0,6.86-2.9,12.77,12.77,0,0,0,0-15.76,9.19,9.19,0,0,0-7-2.89,15,15,0,0,0-3.66.52Z"/><path class="cls-1" d="M353.21,245.56v9.55h5.31a4.35,4.35,0,0,0,2.76-.62,4,4,0,0,0,1-2.89H363V260h-.66a8.61,8.61,0,0,0-.5-2.26,2.19,2.19,0,0,0-1.05-1,5.27,5.27,0,0,0-2.24-.36h-5.31v8a7.83,7.83,0,0,0,.14,2,1.15,1.15,0,0,0,.5.55,3.15,3.15,0,0,0,1.35.2h4.1a11.18,11.18,0,0,0,3-.28,4.57,4.57,0,0,0,1.78-1.12,13.88,13.88,0,0,0,2.26-3.34H367L365,268.4H346.33v-.66h.86a3.42,3.42,0,0,0,1.62-.41,1.51,1.51,0,0,0,.78-.85,8.76,8.76,0,0,0,.2-2.34V248.45a5.17,5.17,0,0,0-.46-2.83,2.75,2.75,0,0,0-2.14-.71h-.86v-.66H365l.27,5.29h-.7a8.14,8.14,0,0,0-.83-2.62,2.82,2.82,0,0,0-1.34-1.09,8,8,0,0,0-2.51-.27Z"/><path class="cls-1" d="M412.07,234.15a15.19,15.19,0,0,1,11.3,4.95,17.12,17.12,0,0,1,4.78,12.36,17.61,17.61,0,0,1-4.82,12.67,16.09,16.09,0,0,1-23.28.12q-4.69-4.9-4.7-12.72a17,17,0,0,1,5.43-13A16,16,0,0,1,412.07,234.15Zm-.47,1.8a8.83,8.83,0,0,0-7.21,3.33Q401,243.44,401,251.43q0,8.2,3.5,12.62a8.68,8.68,0,0,0,7.11,3.36,9.71,9.71,0,0,0,7.8-3.68q3.07-3.68,3.07-11.6,0-8.59-3.38-12.82A9.13,9.13,0,0,0,411.6,236Z"/><path class="cls-1" d="M468.13,234.15l.77,11.38h-.77q-1.53-5.11-4.37-7.36a10.61,10.61,0,0,0-6.81-2.24A10.55,10.55,0,0,0,446.69,243a24,24,0,0,0-1.55,9.21,19.58,19.58,0,0,0,1.46,7.88,10.89,10.89,0,0,0,4.38,5.11,12.57,12.57,0,0,0,6.68,1.78,11.61,11.61,0,0,0,5.76-1.39,19,19,0,0,0,5.48-5.55l.76.5a17.53,17.53,0,0,1-5.87,6.54,14.92,14.92,0,0,1-8,2.08q-8.32,0-12.89-6.18a17.67,17.67,0,0,1-3.41-10.82,19.19,19.19,0,0,1,2.25-9.21,16.34,16.34,0,0,1,6.18-6.5,16.74,16.74,0,0,1,8.61-2.31,15.7,15.7,0,0,1,7.16,1.78,3.92,3.92,0,0,0,1.48.54,1.62,1.62,0,0,0,1.16-.47,3.8,3.8,0,0,0,.92-1.85Z"/><path class="cls-1" d="M508.27,234.91l.37,7.86h-.94a9.59,9.59,0,0,0-.74-3,5,5,0,0,0-2-2.11,7.14,7.14,0,0,0-3.35-.68h-4.71V262.6c0,2.06.22,3.34.66,3.85a3.72,3.72,0,0,0,2.89,1h1.16v.91h-14.2v-.91h1.19a3.39,3.39,0,0,0,3-1.29,7.51,7.51,0,0,0,.54-3.6V237h-4a11.11,11.11,0,0,0-3.33.35,4.54,4.54,0,0,0-2.2,1.8,7.34,7.34,0,0,0-1.09,3.61h-.94l.4-7.86Z"/><path class="cls-1" d="M541.61,235.83v-.92h11.86v.92H552.2a3.4,3.4,0,0,0-3,1.65,7.51,7.51,0,0,0-.52,3.56v13.58a24,24,0,0,1-1,7.82,9.82,9.82,0,0,1-3.93,4.76,13.93,13.93,0,0,1-8,2q-5.49,0-8.32-1.9a10.27,10.27,0,0,1-4-5.11q-.79-2.21-.79-8.25V240.84c0-2.06-.28-3.41-.85-4.05a3.53,3.53,0,0,0-2.76-1h-1.25v-.92h14.47v.92h-1.29a3.3,3.3,0,0,0-3,1.31,7.29,7.29,0,0,0-.62,3.7v14.59a31.78,31.78,0,0,0,.36,4.47,9.49,9.49,0,0,0,1.3,3.93,7,7,0,0,0,2.7,2.32,9.33,9.33,0,0,0,4.33.92,11.91,11.91,0,0,0,5.88-1.44,7.61,7.61,0,0,0,3.54-3.66c.64-1.49,1-4,1-7.57V240.84c0-2.09-.23-3.4-.7-3.93a3.62,3.62,0,0,0-2.86-1.08Z"/><path class="cls-1" d="M585,251.31a10.9,10.9,0,0,1,5.21,2.37,7.4,7.4,0,0,1,2.39,5.56A8.26,8.26,0,0,1,591,264a9,9,0,0,1-4.33,3.33,25.16,25.16,0,0,1-8.41,1H562.43v-.91h1.26a3.4,3.4,0,0,0,3-1.34,7.68,7.68,0,0,0,.56-3.68V240.84c0-2.07-.23-3.38-.71-3.93a3.66,3.66,0,0,0-2.87-1.08h-1.26v-.92h14.48a28.26,28.26,0,0,1,6.49.6,10.49,10.49,0,0,1,5.66,3.14,7.73,7.73,0,0,1,2,5.2,7.14,7.14,0,0,1-1.54,4.51A9,9,0,0,1,585,251.31ZM572,250a20.3,20.3,0,0,0,2.08.26c.78,0,1.65.08,2.58.08a14.37,14.37,0,0,0,5.42-.78,5.76,5.76,0,0,0,2.78-2.38,6.72,6.72,0,0,0,1-3.51,6.42,6.42,0,0,0-2.4-5q-2.4-2.07-7-2.07a16.77,16.77,0,0,0-4.44.54Zm0,16a25.11,25.11,0,0,0,5.65.67q4.47,0,6.82-2a6.3,6.3,0,0,0,2.34-5,7.32,7.32,0,0,0-1.06-3.76,7.17,7.17,0,0,0-3.46-2.84,14.92,14.92,0,0,0-5.92-1c-1,0-1.9,0-2.62.05a13.07,13.07,0,0,0-1.75.17Z"/><path class="cls-1" d="M637.09,268.4h-8.94l-11.33-15.66c-.84,0-1.52,0-2.05,0h-.69l-.77,0v9.73q0,3.16.69,3.93a3.55,3.55,0,0,0,2.82,1.09h1.31v.91H603.78v-.91H605a3.37,3.37,0,0,0,3-1.39,7.87,7.87,0,0,0,.52-3.63V240.84c0-2.11-.24-3.42-.7-3.93a3.62,3.62,0,0,0-2.86-1.08h-1.26v-.92H616a29,29,0,0,1,7.87.78,9,9,0,0,1,4.29,2.87,7.44,7.44,0,0,1,1.77,5,7.78,7.78,0,0,1-2,5.36,11.29,11.29,0,0,1-6.23,3.21l6.91,9.61a17.08,17.08,0,0,0,4.08,4.39,10.2,10.2,0,0,0,4.44,1.39Zm-23.78-17.21h1.38q4.8,0,7.23-2.07a6.65,6.65,0,0,0,2.43-5.29,6.9,6.9,0,0,0-2-5.1,7,7,0,0,0-5.2-2,22,22,0,0,0-3.88.47Z"/><path class="cls-1" d="M654.81,236.74V250h7.35c1.91,0,3.19-.29,3.83-.87.86-.75,1.34-2.09,1.43-4h.92v11.66h-.92a12.8,12.8,0,0,0-.69-3.14,3.1,3.1,0,0,0-1.45-1.36,7.66,7.66,0,0,0-3.12-.49h-7.35v11a10.45,10.45,0,0,0,.19,2.7,1.55,1.55,0,0,0,.69.77,4.23,4.23,0,0,0,1.88.28h5.68a15.53,15.53,0,0,0,4.12-.39,6.24,6.24,0,0,0,2.48-1.56A19,19,0,0,0,673,260h1l-2.89,8.4H645.27v-.91h1.19a4.63,4.63,0,0,0,2.24-.57,2.1,2.1,0,0,0,1.08-1.19,11.57,11.57,0,0,0,.28-3.23V240.74c0-2.12-.21-3.43-.64-3.92a3.81,3.81,0,0,0-3-1h-1.19v-.92h25.81l.37,7.34h-1a11.7,11.7,0,0,0-1.15-3.63,4,4,0,0,0-1.87-1.51,11.1,11.1,0,0,0-3.48-.37Z"/><path class="cls-1" d="M685.43,276.82v-1.09a8,8,0,0,0,3.94-2.6,6,6,0,0,0,1.4-3.74,1.32,1.32,0,0,0-.23-.79.45.45,0,0,0-.34-.22,3.57,3.57,0,0,0-1.19.49,2,2,0,0,1-.94.22,2.63,2.63,0,0,1-1.92-.71,2.68,2.68,0,0,1-.72-2,2.71,2.71,0,0,1,.93-2.07,3.17,3.17,0,0,1,2.26-.87,3.81,3.81,0,0,1,2.9,1.42,5.43,5.43,0,0,1,1.27,3.77,7.39,7.39,0,0,1-1.77,4.73A11.68,11.68,0,0,1,685.43,276.82Z"/><path class="cls-1" d="M746.37,262,744,268.4H724.26v-.91q8.72-8,12.28-13t3.55-9.21a7.29,7.29,0,0,0-2-5.24,6.2,6.2,0,0,0-4.67-2.05,7.26,7.26,0,0,0-4.43,1.45,8.38,8.38,0,0,0-2.9,4.23h-.91a11.48,11.48,0,0,1,3.17-7,8.86,8.86,0,0,1,6.38-2.45,9.43,9.43,0,0,1,6.81,2.62,8.27,8.27,0,0,1,2.72,6.17,12,12,0,0,1-1.18,5.09,33.37,33.37,0,0,1-5.93,8.47q-6.15,6.72-7.68,8.1h8.75a22.87,22.87,0,0,0,3.74-.2,5,5,0,0,0,1.94-.8,5.22,5.22,0,0,0,1.5-1.72Z"/><path class="cls-1" d="M757.88,251.85a25.38,25.38,0,0,1,1.73-9.86,13.76,13.76,0,0,1,4.59-6.16,7.75,7.75,0,0,1,4.59-1.61c2.57,0,4.87,1.31,6.92,3.93q3.82,4.86,3.82,13.19a26.21,26.21,0,0,1-1.67,9.9,13.08,13.08,0,0,1-4.29,5.91,8.74,8.74,0,0,1-5,1.84q-4.8,0-8-5.65A23,23,0,0,1,757.88,251.85Zm4.84.62a31.69,31.69,0,0,0,1.7,11.29q1.41,3.67,4.2,3.68a4.4,4.4,0,0,0,2.77-1.2,7.72,7.72,0,0,0,2.17-4,48.81,48.81,0,0,0,1.13-12,32.82,32.82,0,0,0-1.18-9.56,8.44,8.44,0,0,0-2.3-4,3.73,3.73,0,0,0-2.44-.82,3.87,3.87,0,0,0-3,1.51c-1.19,1.37-2,3.51-2.42,6.44A59.64,59.64,0,0,0,762.72,252.47Z"/><path class="cls-1" d="M812.11,262l-2.34,6.45H790v-.91q8.72-8,12.27-13t3.56-9.21a7.29,7.29,0,0,0-2-5.24,6.21,6.21,0,0,0-4.67-2.05,7.26,7.26,0,0,0-4.43,1.45,8.31,8.31,0,0,0-2.9,4.23H791a11.43,11.43,0,0,1,3.18-7,8.86,8.86,0,0,1,6.38-2.45,9.39,9.39,0,0,1,6.8,2.62,8.28,8.28,0,0,1,2.73,6.17,12,12,0,0,1-1.18,5.09,33.62,33.62,0,0,1-5.93,8.47q-6.15,6.72-7.68,8.1H804a22.71,22.71,0,0,0,3.74-.2,4.84,4.84,0,0,0,1.94-.8A5.13,5.13,0,0,0,811.2,262Z"/><path class="cls-1" d="M844.47,234.22v.92a16.19,16.19,0,0,0-5.32,1.29,14.71,14.71,0,0,0-4.08,3,18.89,18.89,0,0,0-3.33,4.45,26.59,26.59,0,0,0-2.21,5.85,12.53,12.53,0,0,1,7.14-2.45,7.8,7.8,0,0,1,6,2.77,10.14,10.14,0,0,1,2.52,7.11,12.57,12.57,0,0,1-2.55,7.65,9.55,9.55,0,0,1-8.1,4.2,8.14,8.14,0,0,1-5.83-2.27A15.07,15.07,0,0,1,824,255.26a20.66,20.66,0,0,1,1.81-8.54,22.05,22.05,0,0,1,5.14-7.19,18.93,18.93,0,0,1,6.41-4.22,17,17,0,0,1,5.71-1.09Zm-15.36,17.29a42.15,42.15,0,0,0-.45,5.38,17.34,17.34,0,0,0,.88,5.15,10.11,10.11,0,0,0,2.61,4.41,4.37,4.37,0,0,0,3.06,1.16,4.92,4.92,0,0,0,3.84-2,8.75,8.75,0,0,0,1.69-5.77,15,15,0,0,0-1.68-7.31,5.22,5.22,0,0,0-4.76-3.09,6,6,0,0,0-2,.39A20.87,20.87,0,0,0,829.11,251.51Z"/></svg>