<svg id="Capa_1" data-name="Capa 1" xmlns="http://www.w3.org/2000/svg" viewBox="0 0 1248 408.51"><defs><style>.cls-1{fill:#1d1d1b;}</style></defs><path class="cls-1" d="M57.32,131.72c0,13.42,4.81,21.87,12.83,26.1A65,65,0,0,1,69.28,147c0-29.31,17.64-50.9,40.69-50.9,15.6,0,24.06,9.92,22,26-2.77,22.17-23.92,41.71-51.05,41.71a46.73,46.73,0,0,1-6.56-.43c8,28.87,37.63,43.31,69,43.31a106.29,106.29,0,0,0,17.8-1.6l.14.58a111.21,111.21,0,0,1-20.85,2c-31.8,0-61.55-14.58-69.28-44.92C57,159.87,47.84,150,47.84,132.45c0-40.25,48-75,105.88-75,10.94,0,20.71,1.17,29.17,3.65,7.29-12.25,16.48-16.92,30.62-16.92v.15c-11.08,1-17.64,8.6-22.89,19.4,21,8.45,32.52,25.66,32.52,50,0,38.5-28.58,57.9-64.61,57.9H109.68c-3.07,0-5.4,1-7.88,1-1.9,0-3.21-.58-3.21-2s1.31-2.48,3.36-2.48c2.62,0,9.77,1.46,13.12,1.75,23.48-5.84,34.86-24.79,42.73-45.5l18.38-48.86a91.28,91.28,0,0,1,4.52-10.5Q168,60.69,151,60.69C98.45,60.69,57.32,92.63,57.32,131.72Zm27,29.17c23,0,42.29-18.53,44.92-38.36,1.89-14.58-5.84-24.21-19.69-24.21C89,98.32,72.19,119.18,72.19,147a64.36,64.36,0,0,0,1.17,12.11A32.65,32.65,0,0,0,84.3,160.89Zm129.36-47.26c0-21.43-8.9-36.75-25.23-45.21L184.93,77l-19.11,50.6c-7.87,20.71-20.41,38.65-45.35,43l32.52-1.9C187.41,166.72,213.66,150.68,213.66,113.63Z"/><path class="cls-1" d="M307.3,137.7l-3.5,7.58C297.67,158.55,289.36,173,277.11,173c-8.32,0-12.55-6.56-11.52-16.62-5.4,9.18-12.26,16.77-21.88,16.77s-15-7.73-15-21.59c0-26.69,19.83-54.1,39.23-54.1,8.75,0,13.12,5.54,13.12,15,3.65,1.46,9.63-7.88,12.26-13.71h1l-17.51,48.13c-4.66,12.68-3.35,22.46,2.92,22.75,6.86,0,14.88-10.07,21.73-24.36l3.65-7.58Zm-37.63-37.19c-15.17,0-32.23,27.42-32.23,51.48,0,11.23,3.64,17.79,9.62,17.79,7.44,0,15.61-10.06,19.4-19a50.47,50.47,0,0,1,2-6.12L278.42,119C280.17,106.93,277,100.51,269.67,100.51Z"/><path class="cls-1" d="M319.26,98.76h8.31L306.71,157l9.92-20.13c15-30.19,24.94-39.37,34.42-39.37,11.67,0,14.15,11.08,5.83,29.16l-9.33,20.28c-6.13,13.12-1.9,22.6,5.1,22.89s14.88-10.21,21.73-24.5L378,137.7h2.19l-3.5,7.58c-6.13,13.27-14.44,27.86-27,27.86-11.67,0-18.38-12.11-10.5-28.44L348,126.61c8.75-18.08,7.73-25.23.73-25.23-9.19,0-21,19-30.34,37.19l-17.06,33.11h-8.61Z"/><path class="cls-1" d="M401.08,98.76l-17.51,48.13c-4.52,12.54-3.35,22.6,2.92,22.89,6.86,0,14.88-10.21,21.73-24.5l3.65-7.58h2.19l-3.5,7.58c-6.13,13.27-14.44,27.86-26.69,27.86-11.23,0-14.88-12.11-8.61-28.44l17.79-45.94Zm3.79-29.32a6.35,6.35,0,1,1-6.27,6.28A6.32,6.32,0,0,1,404.87,69.44Z"/><path class="cls-1" d="M431.27,173.14c-13.42,0-21.15-8-21.15-21.73,0-26.69,19.83-54,39.52-54,7.88,0,11.52,4.37,11.52,10.79,0,15.89-22.89,28.87-40.69,29.46a56.19,56.19,0,0,0-1.6,12.83c0,12.54,5.39,19.4,15.46,19.4,11.37,0,21.73-8.75,32.81-32.23h2.19C458.1,162.49,446.58,173.14,431.27,173.14Zm27.12-64.9c0-4.82-2.33-7.73-7.29-7.73-12.1,0-25.08,17.21-30,35.44C437.54,135.07,458.39,122.53,458.39,108.24Z"/><path class="cls-1" d="M506.81,51.94l-33.1,92.32c-1.9,5.25-8.32,25.09,2,25.52,6.85,0,14.87-10.21,21.73-24.5l3.64-7.58h2.19l-3.5,7.58c-6.12,13.27-14.44,27.86-27,27.86-10.94,0-14.58-11.09-8.31-28.44l33.4-92.76Z"/><path class="cls-1" d="M578,137.7l-3.5,7.58C568.36,158.55,560,173,547.79,173c-8.31,0-12.54-6.56-11.52-16.62-5.39,9.18-12.25,16.77-21.87,16.77s-15-7.73-15-21.59c0-26.69,19.84-54.1,39.24-54.1,8.75,0,13.12,5.54,13.12,15,3.65,1.46,9.63-7.88,12.25-13.71h1l-17.5,48.13c-4.67,12.68-3.35,22.46,2.92,22.75,6.85,0,14.87-10.07,21.73-24.36l3.64-7.58Zm-37.63-37.19c-15.16,0-32.23,27.42-32.23,51.48,0,11.23,3.65,17.79,9.63,17.79,7.44,0,15.6-10.06,19.4-19a48.79,48.79,0,0,1,2-6.12L549.11,119C550.86,106.93,547.65,100.51,540.35,100.51Z"/><path class="cls-1" d="M630.78,180.72l7.44-19.54C632.67,169.05,626.7,173,620.13,173c-11.66,0-15-12-9-28.29l16.63-45.94H636L619.4,146.89c-4.37,12.54-3.35,22.46,3.94,22.6,6.71.15,13.86-8,19.11-19.54L662,98.76h7.58L641.72,174c17.21-10.79,33.83-22.46,40.25-36.31h2.19c-7.59,16.19-26,29-44,40.25l-10.06,27.27c-5.25,14.15-14.88,22.46-25.67,22.46-7.87,0-12-4.37-12-10.5C592.42,204.49,610.51,193.12,630.78,180.72Zm-35.44,35.44c0,4.52,2.77,8,7.88,8,7.29,0,13.56-6.85,19.25-21.87l6.7-17.65C610.8,195.89,595.34,205.66,595.34,216.16Z"/><path class="cls-1" d="M934.28,83,916.19,127.2c-8.6,21-14.15,32.67-18.67,41.42-1,2.47-1,5.39-2.33,7.58-.73,1.31-1.9,2.19-3.06,1.6-1.32-.73-1.61-2.48-.59-4.37,1.17-2.19,3.5-3.36,3.8-6-.88-15.75-16.19-43.61-16.19-71.61a82.28,82.28,0,0,1,2.18-20l-20.85,52.07c-12.25,30.77-32.38,45.21-57.75,45.21-17.5,0-31.07-7.3-37.63-19.11a119.69,119.69,0,0,1-16-6.12l.14-.3a107.48,107.48,0,0,0,15.46,5.55,35.82,35.82,0,0,1-3.94-16.92,40.71,40.71,0,0,1,40.84-41c17.5,0,29.75,10.79,29.75,27.42,0,18.08-14.29,35.87-40,35.87A79.48,79.48,0,0,1,775,156.66c5.39,8.89,15.31,13.56,28.44,13.56,20.85,0,39.66-12.25,53.23-45.5L880.9,65.21l1.89-4.37A137.92,137.92,0,0,1,862.08,62c-33,0-63.87-8.32-83.42-8.32-25.37,0-50.9,14.15-50.9,41.13,0,18.52,12.11,31.06,24.8,32.23v.15c-17.21-1.46-31.21-13.86-31.21-33.84,0-27.85,27.42-43.46,53.81-43.46,20.71,0,55.13,9.63,89.55,9.63,11.67,0,16.77-.73,19.54-1.75,1.9-3.21,3.5-4.52,5.4-4.52a2,2,0,0,1,2.19,2.18c0,1.46-.88,2.77-3.5,3.79-3.36,7.59-4.53,16.63-4.53,23.05,0,19.83,13.28,39.38,13.57,75.54v5.69c2.33-7.87,5.25-16.48,13.42-35.58L929.46,84c12.55-29.61,27-41.42,42.73-40.84v.29C957.61,43.92,946.67,52.82,934.28,83ZM789.89,157.39c24.21,0,38.5-16,38.5-33.55,0-15-10.5-25.37-25.52-25.37-19.1,0-32.52,16.77-32.52,38.94a38.35,38.35,0,0,0,4.08,18.23A81.14,81.14,0,0,0,789.89,157.39Z"/><path class="cls-1" d="M950.33,173.14c-13.42,0-21.15-8-21.15-21.73,0-26.69,19.83-54,39.52-54,7.88,0,11.52,4.37,11.52,10.79,0,15.89-22.89,28.87-40.69,29.46a56.19,56.19,0,0,0-1.6,12.83c0,12.54,5.4,19.4,15.46,19.4,11.37,0,21.73-8.75,32.81-32.23h2.19C977.16,162.49,965.64,173.14,950.33,173.14Zm27.12-64.9c0-4.82-2.33-7.73-7.29-7.73-12.1,0-25.08,17.21-30,35.44C956.6,135.07,977.45,122.53,977.45,108.24Z"/><path class="cls-1" d="M1025.87,51.94l-33.1,92.32c-1.9,5.25-8.32,25.09,2,25.52,6.85,0,14.87-10.21,21.73-24.5l3.64-7.58h2.19l-3.5,7.58c-6.12,13.27-14.44,27.86-27,27.86-10.94,0-14.58-11.09-8.31-28.44L1017,51.94Z"/><path class="cls-1" d="M1027.77,171.09c11.08,0,18.52-9.91,18.52-24.5,0-15.89-8.75-28.14-10.21-37.62l-14,29.31h-2.19l16.19-33.69c.73-6,5.25-13.12,12-13.12,2.92,0,4.67,1.6,4.67,4.23,0,5-5.69,9.47-14.15,11.08,1.17,8.46,17.06,21.88,17.06,39.67a26.77,26.77,0,0,1-11.52,22.46,46.84,46.84,0,0,0,26.69-23.63l3.65-7.58h2.19l-3.5,7.58a47.37,47.37,0,0,1-38.22,27.42,26.9,26.9,0,0,1-4.81.44c-15.6,0-24.5-13.86-21.29-30.92h.29C1006.18,157.24,1014.64,171.09,1027.77,171.09Z"/><path class="cls-1" d="M1110.9,97.45c10.06,0,13.85,8.16,13.85,20.7a69.45,69.45,0,0,1-5,25.38,9,9,0,0,0,8.17,5.11c3.5,0,6.13-1.9,7.88-5.55l2.62-5.39h2.19l-3.06,6.56c-2,4.23-5.54,6.56-9.77,6.56-3.65,0-6.71-1.75-9.19-4.81-7,15.75-19.25,27.13-30.92,27.13-9.48,0-15-7.44-15-21.59C1072.69,124.86,1092.52,97.45,1110.9,97.45Zm-29.46,55c0,11.52,3.94,17.35,10.35,17.35,8.9,0,19.25-11.52,25.23-26.39-2.91-5.55-4.23-14-3.64-24.51.29-5.83,1.46-15,3.94-16.77a8.54,8.54,0,0,0-5.11-1.6C1098.36,100.51,1081.44,128.36,1081.44,152.43Z"/><path class="cls-1" d="M1152.61,98.76h8.31L1140.07,157l9.92-20.13c15-30.19,24.93-39.37,34.41-39.37,11.67,0,14.15,11.08,5.84,29.16l-9.34,20.28c-6.12,13.12-1.89,22.6,5.11,22.89,6.85.29,14.87-10.21,21.73-24.5l3.64-7.58h2.19l-3.5,7.58c-6.12,13.27-14.44,27.86-27,27.86-11.67,0-18.37-12.11-10.5-28.44l8.75-18.09c8.75-18.08,7.73-25.23.73-25.23-9.19,0-21,19-30.33,37.19l-17.07,33.11h-8.6Z"/><path class="cls-1" d="M460,333.88c0,14.4-6.88,20.71-16.75,20.71s-16.75-6.31-16.75-20.71,6.89-20.82,16.75-20.82S460,319.37,460,333.88Zm-29.25,0c0,10,3.1,17.16,12.5,17.16s12.51-7.12,12.51-17.16-3.1-17.26-12.51-17.26S430.76,323.73,430.76,333.88Z"/><path class="cls-1" d="M479.46,344.27c.4,4.13,3.67,6.77,10.27,6.77,7.91,0,12.27-4.71,12.56-17.73l-.12-.11a13.64,13.64,0,0,1-12.44,7.4c-9.35,0-15.55-4.94-15.55-13.83,0-9.12,7-13.71,15.55-13.71,9.63,0,16.46,4.93,16.46,19.39,0,13.25-4.93,22.14-16.46,22.14-9.93,0-14.06-5.1-14.52-10.32Zm10.27-27.65c-6.26,0-11.3,3.78-11.3,10.21,0,5.79,4.18,10.21,11.3,10.21,9.35,0,11.53-6.2,11.53-10.1C501.26,322.07,498,316.62,489.73,316.62Z"/><path class="cls-1" d="M523.46,347.36h4.93l.06,6.31h-4.94Z"/><path class="cls-1" d="M556,323.85H543.65v-3.22h2.81c6.65,0,9.06-.86,10.27-7.57h3.55l.06,40.61h-4.25Z"/><path class="cls-1" d="M612.48,333.88c0,14.4-6.88,20.71-16.75,20.71S579,348.28,579,333.88s6.88-20.82,16.75-20.82S612.48,319.37,612.48,333.88Zm-29.25,0c0,10,3.09,17.16,12.5,17.16s12.51-7.12,12.51-17.16-3.1-17.26-12.51-17.26S583.23,323.73,583.23,333.88Z"/><path class="cls-1" d="M629,347.36h4.93l.06,6.31h-4.93Z"/><path class="cls-1" d="M682.18,353.67h-31.1c.46-4.64,1.84-9.58,14.06-16,9.06-4.76,12.27-7,12.27-12.39,0-5.91-3.78-8.66-10.15-8.66-9.06,0-11,5.5-11.13,10.84h-4.24c0-10.1,6-14.4,15.43-14.4,10.84,0,14.34,6.48,14.34,12.28,0,6.94-4.36,9.81-9.92,12.9-11.31,6.14-14.4,8.21-15.44,11.53h25.82Z"/><path class="cls-1" d="M730.88,333.88c0,14.4-6.89,20.71-16.75,20.71s-16.75-6.31-16.75-20.71,6.88-20.82,16.75-20.82S730.88,319.37,730.88,333.88Zm-29.26,0c0,10,3.1,17.16,12.51,17.16s12.5-7.12,12.5-17.16-3.1-17.26-12.5-17.26S701.62,323.73,701.62,333.88Z"/><path class="cls-1" d="M776,353.67H744.93c.46-4.64,1.84-9.58,14.05-16,9.07-4.76,12.28-7,12.28-12.39,0-5.91-3.79-8.66-10.15-8.66-9.07,0-11,5.5-11.13,10.84h-4.25c0-10.1,6-14.4,15.43-14.4,10.84,0,14.34,6.48,14.34,12.28,0,6.94-4.36,9.81-9.92,12.9-11.3,6.14-14.4,8.21-15.43,11.53H776Z"/><path class="cls-1" d="M818.7,323.39c-.4-4.13-3.67-6.77-10.27-6.77-7.86,0-12.28,4.76-12.56,17.72l.11.12a13.66,13.66,0,0,1,12.45-7.4c9.35,0,15.55,4.93,15.55,13.82,0,9.12-7,13.71-15.55,13.71-9.64,0-16.46-4.93-16.46-19.39,0-13.25,4.93-22.14,16.46-22.14,9.92,0,14.05,5.11,14.51,10.33ZM808.43,351c6.25,0,11.3-3.79,11.3-10.22,0-5.67-4.19-10.21-11.3-10.21-9.35,0-11.53,6.2-11.53,10.1C796.9,345.59,800.17,351,808.43,351Z"/></svg>