<svg id="Capa_1" data-name="Capa 1" xmlns="http://www.w3.org/2000/svg" viewBox="0 0 1320.51 312.64"><defs><style>.cls-1{fill:#1d1d1b;}</style></defs><path class="cls-1" d="M97.07,151.18c0,13.42,4.81,21.88,12.83,26.1a65,65,0,0,1-.87-10.79c0-29.31,17.64-50.9,40.69-50.9,15.6,0,24.06,9.92,22,26-2.77,22.17-23.92,41.71-51.05,41.71a46.73,46.73,0,0,1-6.56-.43c8,28.87,37.63,43.31,69,43.31a106.29,106.29,0,0,0,17.8-1.6l.14.58a111.21,111.21,0,0,1-20.85,2c-31.8,0-61.55-14.58-69.28-44.92-14.14-2.91-23.33-12.83-23.33-30.33,0-40.25,48-75,105.88-75,10.94,0,20.71,1.16,29.17,3.64,7.29-12.25,16.48-16.92,30.62-16.92v.15c-11.08,1-17.64,8.6-22.89,19.4,21,8.46,32.52,25.67,32.52,50,0,38.5-28.58,57.9-64.61,57.9H149.43c-3.07,0-5.4,1-7.88,1-1.9,0-3.21-.58-3.21-2s1.31-2.48,3.36-2.48c2.62,0,9.77,1.46,13.12,1.75,23.48-5.83,34.86-24.79,42.73-45.5L215.93,95a91.28,91.28,0,0,1,4.52-10.5q-12.69-4.38-29.75-4.38C138.2,80.15,97.07,112.09,97.07,151.18Zm27,29.17c23,0,42.29-18.52,44.92-38.36,1.89-14.58-5.84-24.21-19.69-24.21-20.56,0-37.34,20.86-37.34,48.71a64.28,64.28,0,0,0,1.17,12.11A32.65,32.65,0,0,0,124.05,180.35Zm129.36-47.26c0-21.43-8.9-36.75-25.23-45.21l-3.5,8.61L205.57,147.1c-7.87,20.7-20.41,38.64-45.35,43l32.52-1.9C227.16,186.18,253.41,170.14,253.41,133.09Z"/><path class="cls-1" d="M347.05,157.16l-3.5,7.58c-6.13,13.27-14.44,27.71-26.69,27.71-8.32,0-12.55-6.56-11.53-16.62-5.39,9.18-12.25,16.77-21.87,16.77s-15-7.73-15-21.59c0-26.69,19.83-54.1,39.23-54.1,8.75,0,13.12,5.54,13.12,15,3.65,1.46,9.63-7.88,12.25-13.71h1l-17.51,48.13c-4.66,12.68-3.35,22.46,2.92,22.75,6.86,0,14.88-10.07,21.73-24.36l3.65-7.58ZM309.42,120c-15.17,0-32.23,27.42-32.23,51.48,0,11.23,3.64,17.79,9.62,17.79,7.44,0,15.61-10.06,19.4-19a50.47,50.47,0,0,1,2-6.12l9.92-25.67C319.92,126.39,316.71,120,309.42,120Z"/><path class="cls-1" d="M359,118.22h8.31l-20.86,58.19,9.92-20.13c15-30.19,24.94-39.37,34.42-39.37,11.67,0,14.15,11.08,5.83,29.16l-9.33,20.28c-6.13,13.12-1.9,22.6,5.1,22.89s14.88-10.21,21.73-24.5l3.65-7.58H420l-3.5,7.58c-6.13,13.27-14.44,27.86-27,27.86-11.67,0-18.38-12.11-10.5-28.44l8.75-18.09c8.75-18.08,7.73-25.23.73-25.23-9.19,0-21,19-30.34,37.19l-17.06,33.11h-8.61Z"/><path class="cls-1" d="M440.82,118.22l-17.5,48.13c-4.52,12.54-3.35,22.6,2.92,22.89,6.86,0,14.88-10.21,21.73-24.5l3.65-7.58h2.19l-3.51,7.58c-6.12,13.27-14.43,27.86-26.68,27.86-11.23,0-14.88-12.11-8.61-28.44l17.79-45.94Zm3.8-29.32a6.35,6.35,0,1,1-6.27,6.28A6.32,6.32,0,0,1,444.62,88.9Z"/><path class="cls-1" d="M471,192.6c-13.42,0-21.15-8-21.15-21.73,0-26.69,19.83-54,39.52-54,7.88,0,11.52,4.37,11.52,10.79,0,15.9-22.89,28.88-40.69,29.46a56.19,56.19,0,0,0-1.6,12.83c0,12.54,5.39,19.4,15.46,19.4,11.37,0,21.73-8.75,32.81-32.23h2.19C497.85,182,486.33,192.6,471,192.6Zm27.12-64.9c0-4.81-2.33-7.73-7.29-7.73-12.11,0-25.09,17.21-30,35.44C477.29,154.53,498.14,142,498.14,127.7Z"/><path class="cls-1" d="M546.56,71.4l-33.1,92.32c-1.9,5.25-8.32,25.09,2,25.52,6.85,0,14.87-10.21,21.73-24.5l3.64-7.58h2.19l-3.5,7.58c-6.12,13.27-14.44,27.86-27,27.86-10.94,0-14.58-11.09-8.31-28.44l33.4-92.76Z"/><path class="cls-1" d="M617.73,157.16l-3.5,7.58c-6.12,13.27-14.44,27.71-26.69,27.71-8.31,0-12.54-6.56-11.52-16.62-5.39,9.18-12.25,16.77-21.87,16.77s-15-7.73-15-21.59c0-26.69,19.84-54.1,39.23-54.1,8.75,0,13.13,5.54,13.13,15,3.65,1.46,9.63-7.88,12.25-13.71h1l-17.5,48.13c-4.67,12.68-3.35,22.46,2.92,22.75C597,189.1,605,179,611.9,164.74l3.64-7.58ZM580.1,120c-15.16,0-32.23,27.42-32.23,51.48,0,11.23,3.65,17.79,9.63,17.79,7.44,0,15.6-10.06,19.4-19a48.79,48.79,0,0,1,2-6.12l9.92-25.67C590.6,126.39,587.4,120,580.1,120Z"/><path class="cls-1" d="M670.53,200.18,678,180.64c-5.55,7.87-11.52,11.81-18.09,11.81-11.67,0-15-12-9-28.29l16.63-45.94h8.31l-16.63,48.13c-4.37,12.54-3.35,22.46,3.94,22.6,6.71.15,13.86-8,19.11-19.54l19.54-51.19h7.58l-27.85,75.25c17.21-10.79,33.83-22.46,40.25-36.31h2.19c-7.59,16.19-26,29-44,40.25L669.8,224.68c-5.25,14.15-14.88,22.46-25.67,22.46-7.87,0-12-4.37-12-10.5C632.17,224,650.26,212.58,670.53,200.18Zm-35.44,35.44c0,4.52,2.77,8,7.88,8,7.29,0,13.56-6.85,19.25-21.87l6.7-17.65C650.55,215.35,635.09,225.12,635.09,235.62Z"/><path class="cls-1" d="M974,102.47l-18.09,44.19c-8.6,21-14.15,32.67-18.67,41.42-1,2.48-1,5.39-2.33,7.58-.73,1.31-1.9,2.19-3.06,1.6-1.32-.72-1.61-2.47-.59-4.37,1.17-2.19,3.5-3.35,3.8-6-.88-15.75-16.19-43.61-16.19-71.61a82.28,82.28,0,0,1,2.18-20l-20.85,52.07C888,178.16,867.85,192.6,842.48,192.6c-17.5,0-31.07-7.29-37.63-19.11a118.32,118.32,0,0,1-16-6.12l.14-.29a109,109,0,0,0,15.46,5.54,35.82,35.82,0,0,1-3.94-16.92,40.71,40.71,0,0,1,40.84-41c17.5,0,29.75,10.79,29.75,27.42,0,18.08-14.29,35.87-40,35.87a79.48,79.48,0,0,1-16.33-1.89c5.39,8.89,15.31,13.56,28.44,13.56,20.85,0,39.66-12.25,53.23-45.5l24.21-59.5,1.89-4.38a137.92,137.92,0,0,1-20.71,1.17c-33,0-63.87-8.32-83.42-8.32-25.37,0-50.9,14.15-50.9,41.13,0,18.52,12.11,31.07,24.8,32.23v.15c-17.21-1.46-31.21-13.86-31.21-33.84,0-27.85,27.41-43.46,53.81-43.46C835.62,69.36,870,79,904.46,79c11.67,0,16.77-.73,19.54-1.75,1.9-3.21,3.5-4.52,5.4-4.52a2,2,0,0,1,2.19,2.18c0,1.46-.88,2.77-3.5,3.8-3.36,7.58-4.53,16.62-4.53,23,0,19.83,13.28,39.38,13.57,75.54V183c2.33-7.87,5.25-16.48,13.42-35.58l18.66-43.9c12.55-29.61,27-41.42,42.73-40.84V63C997.36,63.38,986.42,72.28,974,102.47ZM829.64,176.85c24.21,0,38.5-16,38.5-33.55,0-15-10.5-25.37-25.52-25.37-19.1,0-32.52,16.77-32.52,38.94a38.35,38.35,0,0,0,4.08,18.23A81.14,81.14,0,0,0,829.64,176.85Z"/><path class="cls-1" d="M990.08,192.6c-13.42,0-21.15-8-21.15-21.73,0-26.69,19.83-54,39.52-54,7.88,0,11.52,4.37,11.52,10.79,0,15.9-22.89,28.88-40.69,29.46a56.19,56.19,0,0,0-1.6,12.83c0,12.54,5.4,19.4,15.46,19.4,11.37,0,21.73-8.75,32.81-32.23h2.19C1016.91,182,1005.39,192.6,990.08,192.6Zm27.12-64.9c0-4.81-2.33-7.73-7.29-7.73-12.1,0-25.08,17.21-30,35.44C996.35,154.53,1017.2,142,1017.2,127.7Z"/><path class="cls-1" d="M1065.62,71.4l-33.1,92.32c-1.9,5.25-8.32,25.09,2,25.52,6.85,0,14.87-10.21,21.73-24.5l3.64-7.58h2.19l-3.5,7.58c-6.12,13.27-14.44,27.86-27,27.86-10.94,0-14.58-11.09-8.31-28.44l33.4-92.76Z"/><path class="cls-1" d="M1067.52,190.56c11.08,0,18.52-9.92,18.52-24.51,0-15.89-8.75-28.14-10.21-37.62l-14,29.31h-2.19l16.19-33.69c.73-6,5.25-13.12,12-13.12,2.92,0,4.67,1.6,4.67,4.23,0,5-5.69,9.48-14.15,11.08,1.17,8.46,17.06,21.88,17.06,39.67a26.77,26.77,0,0,1-11.52,22.46,46.84,46.84,0,0,0,26.69-23.63l3.65-7.58h2.18l-3.5,7.58a47.34,47.34,0,0,1-38.21,27.42,26.9,26.9,0,0,1-4.81.44c-15.6,0-24.5-13.86-21.29-30.92h.29C1045.93,176.7,1054.39,190.56,1067.52,190.56Z"/><path class="cls-1" d="M1150.65,116.91c10.06,0,13.85,8.16,13.85,20.71a69.43,69.43,0,0,1-5,25.37,9,9,0,0,0,8.17,5.11c3.5,0,6.13-1.9,7.88-5.55l2.62-5.39h2.19l-3.06,6.56c-2,4.23-5.54,6.56-9.77,6.56-3.65,0-6.71-1.75-9.19-4.81-7,15.75-19.25,27.13-30.92,27.13-9.48,0-15-7.44-15-21.59C1112.44,144.32,1132.27,116.91,1150.65,116.91Zm-29.46,55c0,11.52,3.94,17.35,10.35,17.35,8.9,0,19.25-11.52,25.23-26.39-2.91-5.55-4.23-14-3.64-24.5.29-5.84,1.46-15,3.94-16.78A8.54,8.54,0,0,0,1152,120C1138.11,120,1121.19,147.82,1121.19,171.89Z"/><path class="cls-1" d="M1192.36,118.22h8.31l-20.85,58.19,9.92-20.13c15-30.19,24.93-39.37,34.41-39.37,11.67,0,14.15,11.08,5.84,29.16l-9.34,20.28c-6.12,13.12-1.89,22.6,5.11,22.89,6.85.3,14.87-10.21,21.73-24.5l3.64-7.58h2.19l-3.5,7.58c-6.12,13.27-14.44,27.86-27,27.86-11.67,0-18.38-12.11-10.5-28.44l8.75-18.09c8.75-18.08,7.73-25.23.73-25.23-9.19,0-21,19-30.33,37.19l-17.07,33.11h-8.6Z"/></svg>