<svg id="Capa_1" data-name="Capa 1" xmlns="http://www.w3.org/2000/svg" viewBox="0 0 968.17 817.3"><defs><style>.cls-1{fill:#331d21;}</style></defs><path class="cls-1" d="M298.42,709.11q20.9.4,41.81.81,16.56.33,33.13.74a11.13,11.13,0,0,1,3.28.22,2.66,2.66,0,0,1,1.67,4c-.48.84-2.41,1.29-3.59,1.15-1.69-.2-3.27-1.6-4.92-1.63q-41.15-.87-82.31-1.49c-5.52-.08-11.06,0-16.58.2a42.7,42.7,0,0,0-6.36,1.15c-.36.07-.85.47-1,.35-4.18-3.07-8.88.12-13.19-1.13-.13,0-.2-.29-.6-.9,3-3,7.37-.89,10.94-2.86a46.18,46.18,0,0,0,2-14.85c-.05-8.29-.14-16.58-.16-24.87q-.14-53.25-.22-106.5c0-10,.22-19.9.28-29.85,0-2-.29-4-.49-6.57H213.47c-1.06,1.15-2.27,4.3-5.28,1.54.41-2.52.8-4.93,1.3-8-2.81-.13-5-.27-7.13-.32q-20.69-.52-41.37-1c-2.13-.06-4.53.3-5.57-2.53,2.25-2.67,5.16-1.34,7.75-1.36,11.55-.07,23.1,0,35.24,0l-5.66-2.09c-.7-2.45.8-3,2.46-3.65,4-1.6,4-1.93,3.87-6.05-.37-18.41-.61-36.81-1-55.22-.19-10.3-.37-20.6-.77-30.9-.49-12.29-1.34-24.57-1.73-36.86-.08-2.25-1.83-4.88,1.15-8.06a871,871,0,0,1,4.82,100.21l1.2,0v-43.3c0-10.14-.25-20.29.07-30.41.25-7.71,1.12-15.4,1.93-23.07.13-1.24,1.43-2.36,2.19-3.53l-.2-.18c.5,2.27,1.7,4.63,1.4,6.79-2.47,17.75-2.2,35.65-2.78,53.48-.45,13.61-.11,27.25.15,40.87.25,12.82.86,25.64,1.29,38.45,0,1.1-.1,2.21-.17,3.65,3.26,1.14,7,2.16,6.43,7.2h48c.25-2.77-.47-3.73-3.28-3.73q-17.62,0-35.26-.63c-2.68-.09-5.9,0-7.65-3,1.38-2.31,3.32-1.36,5-1.31,10.66.29,21.32.7,32,.85,5.75.09,7.09-1.45,6.91-7.29-.22-7-.87-14-.83-21q.11-16.56.91-33.11c.67-14.32.05-28.63-.14-42.94-.1-7.71-.61-15.42-.9-23.13-.08-2.31,0-4.64,0-7l1.37-.44c.57.84,1.61,1.66,1.64,2.51.91,27.76,2.8,55.52,1.19,83.3-.78,13.28-1,26.5.49,39.73.11,1.05.35,2.1.59,3.52l3.82-.68c0-5.3.16-10.38,0-15.44-.67-18.39-1.46-36.77-2.17-55.15-.52-13.41-1.33-26.81-1.35-40.22,0-7.12,1.3-14.26,2.23-21.36.12-.9,1.61-1.61,2.46-2.41.56,1,1.68,2.05,1.57,3-.62,5.47-1.59,10.91-2.32,16.37-.31,2.32-.34,4.68-.48,6.72.77.52,1.05.85,1.36.88,8.55,1.06,9.94,2.82,9.43,11.41-.22,3.81,0,7.64-.08,11.46-.19,5.88-.54,11.75-.79,17.63-.06,1.43,0,2.87,0,5,5.27,0,10.2.23,15.1-.05,9.54-.54,19.08-1.19,28.59-2.12,16.63-1.63,33.47-1.13,49.87-5.1,3.47-.84,4.91.66,4.5,4.1-.33,2.86-.73,5.71-1.17,9.09l-83.18,2.12c.73-1,1.12-2,1.83-2.32A9.39,9.39,0,0,1,296,451c12.5-.51,25-.94,37.51-1.41,9.57-.36,19.14-.71,28.7-1.16a52.91,52.91,0,0,0,6.14-1v-4.9l-82.94,8.48c2.44,6.3,2.39,12.63,2,19-.37,6.08.06,12.26-2.45,18.33a11.38,11.38,0,0,1-.65-2.68c-.08-7.73-.15-15.47-.08-23.2.05-5.83-1-7.48-7.3-10.49-.41,2.95-1.21,5.82-1.13,8.66.35,12.1,1,24.2,1.51,36.84,2.81,0,5.52,0,8.23,0,15.11-.08,30.23.06,45.33-.33,9.37-.25,18.71-1.35,28.07-2a74.48,74.48,0,0,1,8.84-.07c4.05.2,4.06,1.65,4.57,5.55.34,2.66-1.21,3.62-4.53,4.31-13.58,2.8-27.3,1-41,1.4a130.22,130.22,0,0,1-13.25-.4c-2.33-.17-5.38.65-6.16-3-.07-.33-.84-.72-1.29-.72-7.49-.05-15,0-22.48,0-.24,2.23-.41,3.75-.69,6.21l-5.46-3.78c.35,26.28-3.57,52.17-.26,78.8,5.22.4,10.47,1,15.72,1.16,15.46.6,30.92,1.07,46.38,1.54a11.91,11.91,0,0,0,4.21-.5c3.76-1.29,3.73-1.37,5.56,3.14-1.28,1.46-2.58,2.91-3.85,4.38-2,2.35-4.51,1.11-6.68.58-1.1-.26-1.9-1.77-3.42-3.32l-51.83-1.44c-.3,2-.53,3.51-.9,6l-8.88-8a6.85,6.85,0,0,1-.22-2.54c1.47-9.74.4-19.47.11-29.21-.53-17.47-1.06-34.95-1.24-52.43-.07-6.41.8-12.84,1.33-19.26a220.09,220.09,0,0,0,.09-36.31c-.95-11.89-.25-23.93.07-35.89.16-5.83.1-6.33-6.59-7.19,0,5.12-.18,10.17,0,15.21.61,14.5,1.54,29,2.05,43.49.5,14.1.7,28.21.92,42.32.09,5.42,0,5.42-5.14,7.27a15.39,15.39,0,0,0-1.73.94c.68,2.15,1.43,4.33,2,6.54.29,1.06.74,2.36.39,3.25-3,7.37-.27,14.92-.83,22.39-.74,9.83-.28,19.76-.13,29.65.18,11.94.55,23.88.9,35.82.1,3.43.39,6.86.72,10.3.09-34.58,1.84-69.11,1.35-103.7l2.07-.2c.44,1.82,1.29,3.64,1.27,5.45-.17,15.46-.53,30.93-.76,46.39-.09,6.07,0,12.14,0,18.22,0,11.37.21,22.75-.16,34.1a525.83,525.83,0,0,0,1.73,60.72c.65,7.82,1.16,15.7-.4,23.57-2.38-5.38-1.07-11.24-2.14-16.81-1.14-5.93-1.12-12.08-1.63-18.13-.5-5.85-1-11.7-1.79-17.57-.69,18.56-1.39,37.12-2.09,55.91,3.31-.71,6.65-3.41,9.29.8,2.22-3.1,2.22-3.1,7.65-4.43.17-5.72.25-11.57.56-17.41.63-11.93,1.49-23.85,2.05-35.78a242.93,242.93,0,0,0-2.05-42.44c-.42-3.25-1.46-6.63.11-11,.88,1.68,1.57,2.45,1.7,3.32,2.51,17.32,4.24,34.71,3.32,52.25-.62,11.75-1.47,23.49-2,35.24-.25,5.1,0,10.22,0,15.77,3.84-.64,7.75,1.13,9.89-3.49.36-.78,2.66-.86,4.08-.92,9.19-.43,18.38-.77,27.57-1.15,1.61-.06,3.22-.21,5.29-.34-.83-14.77-1.24-29.27-2.61-43.68a30.89,30.89,0,0,0-10.5-20.16c-1.2-1.08-2.35-2.23-3.63-3.44-10.15,6.53-13.62,16.7-14.79,28.09a135.47,135.47,0,0,0,1.26,34.6c.18,1.2-.42,2.53-.77,4.46-3-2.37-3.47-5-3.72-7.41-1.15-11-2.33-22-.85-33,1.29-9.64,3.75-18.84,11.38-25.66,2.58-2.31,5.2-4.71,8.94-5a52.25,52.25,0,0,0,4.41,4.73c8.25,7,11.9,16.32,12.84,26.66,1.05,11.53,1.36,23.13,2,34.71.1,2,0,4,0,6.52l13.86.67c1.74-7.8,2-15.48,2-23.18-.08-18.6-.08-37.21-.45-55.81-.1-5,0-10.37-3.57-14.75-.65-.79-.38-2.34-.62-4.15h12.41c-.32-30-.39-59.5,2.73-88.84l1.11-.21a14.91,14.91,0,0,1,.78,3.7c-.37,11-.87,22.06-1.26,33.09-.14,3.87-.07,7.74-.07,11.62q0,18.49,0,37a35,35,0,0,0,.44,3.7c3.65-.34,7.1-.63,10.53-1,5.24-.58,6.49.43,5.63,5.49-3.75,22.15-2.5,44.46-2.2,66.72.14,10.09.83,20.18,1.27,30.27.08,1.81.09,1.81-3.19,3.17-.45-2.56-1.26-5-1.27-7.48-.13-23.4-.37-46.81,0-70.2.11-6.72,2.09-13.41,3.21-20.12.17-1,.32-2,.55-3.49-2.09.31-3.67.55-5.25.77-2.57.37-4.77.42-6.78-2.07-1.81-2.24-6-1.55-8.35.77-.51.49-.71,1.31-1.22,1.79a4.76,4.76,0,0,1-1.37.78c.86,32.23,3,64.11-2.3,96.29-2.91,0-5.08-.09-7.25,0q-22.05,1.08-44.1,2.28c-.67,0-1.3.9-2,1.36l-8.15-.48v.9Zm67.81-210.28-53.92,3.7c13,.17,26,0,39,.26,5.24.1,9.66-2.5,14.56-3.37C366,499.4,366.08,499.12,366.23,498.83Z"/><path class="cls-1" d="M367.46,367.9a85.39,85.39,0,0,0-3.14,8.75c-1.9,7.9-1.59,15.93-1.23,24.84,1.65-3,2.89-5.22,4.12-7.46l1.12.4c-1.7,13.15-3,26.32-.93,39.68-3.84-.66-4-1.08-5.32-9.38,0,2.23-.1,4.45,0,6.67.16,2.92-1.53,4.2-4,5.39-.58-1.06-1.33-1.81-1.37-2.59q-1.2-25.32-2.23-50.66c0-.77.69-1.57,1.21-2.7l3.45,2.22c.47-3.33.9-6.33,1.43-10.1-2.94,1.3-5.52,2.4-8.07,3.59-.82.39-1.48,1.15-2.31,1.49-5.9,2.37-8.37,6.26-8.32,13,.08,10.8-1.35,21.61-1.74,32.43a52.78,52.78,0,0,0,1.37,12c.51,2.63-.13,3.84-2.73,4.2-1.63.22-3.22.8-4.85.91a2.79,2.79,0,0,1-2.22-1.08,2.42,2.42,0,0,1,.48-2.33,4.45,4.45,0,0,0,2.14-4c0-13.06.13-26.12.2-39.18a26.41,26.41,0,0,0-.42-3.09c-3.5,1.05-6.74,1.88-9.87,3-2.58.94-5,2.3-7.52,3.41-6.22,2.73-12.57,5.18-16.43,11.42-2.5,4-6.4,3.25-10.19,2.33l.19.18-5.45-3.62c-.31-1.85-.55-3.75-1-5.62-.77-3.52.37-5.21,4-5.61a4.08,4.08,0,0,1,2.18.11c5.41,2.78,10,0,14.42-2.4,6.62-3.57,12.95-7.69,19.55-11.32,15-8.27,30-16.53,45.11-24.5,11.05-5.82,22.37-11.15,33.54-16.76,11.74-5.89,22.42-13.4,32.8-21.38a77,77,0,0,1,9.67-6.18c1.61-1.41,0-5.66,4.87-4.66q.86,2,2,4.89c5,.77,8.53,4.31,12.46,7.36a228.15,228.15,0,0,0,40.4,24.77c13.71,6.69,27.08,14.08,40.59,21.2,10.89,5.74,21.81,11.45,32.61,17.35,5.8,3.17,11.28,6.93,17.12,10,3.8,2,7.68,3.5,12.47,1.73,4.46-1.65,6.53.49,6.77,5.47,11.76-.13,23.64-2.45,35.2,1.51,0,3.39-2.21,3.14-3.93,3.14-3.31,0-6.63-.31-9.94-.3-6.62,0-13.28-.22-19.84.46-2.55.27-4.88,2.73-7.31,4.19l.16-.13c-.37,0-.82-.23-1.09-.08-5.6,3-9.09-.36-12-4.31a19.86,19.86,0,0,0-9.12-6.8c-3.92-1.58-7.67-3.58-11.58-5.16-3.47-1.4-7.07-2.49-11.37-4-.08,2.51-.22,4.44-.19,6.36.21,11.77.49,23.53.66,35.3,0,1.82-.59,3.62,1.71,4.72.52.25.67,2,.4,2.88-.15.47-1.54.79-2.36.77a20.24,20.24,0,0,1-3.2-.73c-5-1-4.48-.92-3.8-6a109,109,0,0,0,.88-18.68c-.4-10.1-1.36-20.17-2.22-30.24a4.44,4.44,0,0,0-1.58-3.17c-5.42-2.9-9.93-7.58-16.55-8.36l2,10.62,2.59-3.78c2.53,5.88,1.18,46-1.47,55.81-4.07-.94-4.45-1.38-5.26-6.6-1.06,2.2,0,6-4.53,4.62a155.89,155.89,0,0,0-1.24-40.09c3.67,1,3.34,4.68,5.81,7.61-.31-11.17.8-21.29-4-30.87a7.92,7.92,0,0,0-4.09-4.05c-5.66-2.61-11.36-5.14-16.89-8-3.73-1.94-7.09-4.58-10.78-6.6-10.31-5.63-20.6-11.32-31.12-16.53-3.74-1.85-7-3.84-9.52-7.17a76.83,76.83,0,0,0-5.59-6c-9.28,9.31-20.25,15.12-31.89,19.57-9.63,3.68-19.29,7.2-28.23,12.41a24,24,0,0,1-3.53,1.54c-.25.1-.61-.08-1.83-.28,2.41-1.63,4.35-2.84,6.17-4.21,1.5-1.13,2.86-2.45,4.29-3.68a13.58,13.58,0,0,0,3.65-.46c5.75-2.43,11.36-5.17,17.15-7.48,10.18-4.07,18.95-10.41,28.25-16.7l-2.69-4.83a42,42,0,0,0-4.59,3,148.26,148.26,0,0,1-25.4,17.49c-5.41,3.06-10.86,6-16.29,9.06-6.58,2.72-13.27,5.23-19.73,8.21-5.65,2.6-11.08,5.69-16.55,8.66a12,12,0,0,0-2.23,2.11,64.32,64.32,0,0,0-6.08,2.29c-3.79,1.86-7.4,4.08-11.22,5.87A197.23,197.23,0,0,0,311,394.15c-.29.2-.36.72-1.08,2.32,6.63-3.33,12.3-5.84,17.63-8.93,7.61-4.4,14.55-10,23-12.9,4.13-1.42,7.38-3.8,9.24-7.86L367.6,368Zm173.12.34-.81.89c1.25,1.16,2.33,2.6,3.77,3.41,2.7,1.53,5.72,2.5,8.42,4,6.51,3.7,12.83,7.75,19.39,11.35,5.45,3,11.14,5.55,16.72,8.3C578.63,387.3,549,370.42,540.58,368.24Zm-22.47-12.72-.75,1.36c3.54,2.59,7.16,5.06,10.57,7.79,2.91,2.32,5.81,3.76,10.14,1.29Zm-230.9,47.14c2,1.6,3.71,3,5.48,4.33,1.59,1.17,3.35,1.71,4.87,0,2.05-2.37,4-4.86,5.93-7.3a6.34,6.34,0,0,0-3.89,1c-3.29,2.1-6.5,4.08-10.36,1.1C289,401.54,287.9,402.34,287.21,402.66Zm324-.39c-1.39-.08-2.6-.54-3.17-.12-2.92,2.16-5.39,1.28-8-.58a23.79,23.79,0,0,0-4.11-1.93,21.17,21.17,0,0,0,4.19,6.85c1.6,1.9,3.4,1.9,5.29.35C607,405.53,608.62,404.27,611.16,402.27ZM462.38,325.32c1.71,4.67,5.52,6.24,10,6.9Zm52.45,30.34.45-1.34-10.12-4.22C507.75,353.31,510.63,355.88,514.83,355.66Zm44.59,33.41,2.64-1.89-2.64-2Zm-220.83.16c-.07-1.33-.13-2.4-.21-4C335.75,387,336.4,388,338.59,389.23Z"/><path class="cls-1" d="M600.24,709.1c-.51-.44-1-1.24-1.52-1.28-7.52-.59-15-1.2-22.58-1.57-9.55-.48-19.11-.75-29-1.12-2.55-5.78-3.33-12.2-3.5-18.5-.47-16.76-.48-33.54-.44-50.31,0-8.81.5-17.62.8-27.21a49.89,49.89,0,0,0-6.35-4.21c-1-.51-3.42-.27-4,.51-2.77,3.84-6.35,2.63-9.89,2.12-.68-.1-1.35-.27-2.9-.59,2.63,11.55,4.46,22.69,4.49,34s.06,22.49.06,33.74.09,22.59-1.91,33.69c-2.77,0-3.63-1.17-3.3-2.88,2-10,.93-20.17,1.18-30.27.22-8.46.54-16.91.7-25.37a204.25,204.25,0,0,0-2.81-39.58c-1.27-7.21-.11-8.19,7.07-7.28,2.88.37,5.8.48,9.23.74,0-10.27,0-20.16,0-30s-.35-19.9-.11-29.84c.23-9.77-1.94-19.55.31-29.33a316.58,316.58,0,0,1,3.34,43.89c.23,14.83,0,29.66,0,45.15,3.12,0,5.79,0,8.47,0,4.11,0,4.81,1.32,3.22,4.94-1.37,3.13-2.76,6.5-3,9.84-.51,8.38-.34,16.81-.48,25.21-.18,10.68-.57,21.35-.53,32,0,6.79.62,13.58,1.08,20.36a39.41,39.41,0,0,0,1,5.32h13.58c1-15.3,1.61-30.15,2.95-44.94a34.43,34.43,0,0,1,12.63-23.76,20.59,20.59,0,0,0,2.46-2.18,7.14,7.14,0,0,0,.83-2c4.22,0,6.9,2.59,9.63,4.95,6.66,5.75,9.18,13.66,10.72,21.89a95.26,95.26,0,0,1,.34,30.24c-.42,3.08-.72,6.18-1.28,9.23a21.77,21.77,0,0,1-1.55,4c-2.49-.46-2.62-1.73-2.27-3.69a130.06,130.06,0,0,0,1.33-34.12c-.73-8.7-2.87-17.11-9.13-23.77-1.72-1.83-3.76-3.36-5.6-5-6.26,5.43-11.17,11.29-13.1,19.1a56.49,56.49,0,0,0-1.9,10.26c-.71,12.62-1.16,25.27-1.71,38l28.65,1.39c1.84.09,3.68.09,5.51.27.88.09,2.26.25,2.51.79,2.08,4.48,6,3,10.2,3.51,0-4.8.19-9.31.07-13.82-.12-4.22-.6-8.42-.83-12.64-1-18.19-2.62-36.37-.9-54.59.72-7.68,1.91-15.31,2.94-23,.08-.61.51-1.18,1.81-1.75a18.79,18.79,0,0,1,.45,3.84c-.62,7.32-1.2,14.65-2.08,21.95-1.42,11.75-.94,23.48-.09,35.23q1.13,15.69,1.91,31.39c.23,4.52,0,9.07,0,13.67,2.85,1,6.3,0,7,3.8,0,.29,2,.27,3.14.34,5.33.32,10.67.55,16,1a8.44,8.44,0,0,1,5.07,2.19,8.87,8.87,0,0,1-2.75.87c-9.92-.29-19.84-.92-29.77-1-17.14-.08-34.28.1-51.42.35-11.78.17-23.54.64-35.31,1-2,.06-3.88-.15-5.6,1.57a2.24,2.24,0,0,1-3.87-1.16c-.22-1.14.95-3.08,2-3.77s2.86-.2,4.33-.25c19.88-.55,39.75-1.13,59.62-1.63,4.91-.13,9.82,0,14.76,0,2.28.15,4.53.32,6.79.48l0-1Z"/><path class="cls-1" d="M18.82,709.58A129.4,129.4,0,0,1,49.07,708c4.55.33,9.14.11,13.71,0,3.13-.06,6.27-.16,9.38-.47,2.72-.27,5.6-.4,8.09-1.39,8-3.18,16-3.15,24.38-1.88,8.67,1.31,17.49,1.67,27,2.51.5-3.7,1.25-6.88,1.31-10.08.13-7.36-.29-14.73-.08-22.08.39-13.6,1.14-27.18,1.59-40.77.18-5.31-.11-10.64-.08-16,0-2.71-1.82-4.25-3.31-6.11-2.59-3.21-2.33-4.17,1.3-6.64.23-3.4-5.43-3.74-3.85-8l5.36-.79c-1.49-21.84-1.46-43.72-4.92-66.45,1.44,1.24,2.53,1.72,2.77,2.47a35.06,35.06,0,0,1,2,8c1,13.38,1.86,26.78,2.74,40.17.37,5.49.69,11,1.07,17l8.13.76c-.7-23.5-1.19-46.47,1-69.36l1.56-.2a32.43,32.43,0,0,1,1.31,5.81c.15,3.49-.17,7-.18,10.49,0,13.4-.08,26.8,0,40.2,0,4.37.23,8.75.36,13.53,11.38,1.16,22.27,2.28,33.32,1,12.22-1.48,24.45-3,36.73-3.87,6.36-.45,12.83.54,19.25.84,5.65.26,11.35,1.54,16.8-1.37.65-.35,2.69.47,3,1.21.86,2,1.78,4.33,1.48,6.35-.4,2.65-2.19,5-1.87,8,0,.33-1.05,1.07-1.63,1.09a2.24,2.24,0,0,1-1.79-1,30.2,30.2,0,0,1-1-4.46,27.13,27.13,0,0,0-14.48-1.67c-10.58,1.31-21.09,3.13-31.64,4.68-4.18.61-8.37,1.35-12.58,1.55-14.87.69-29.75,1.18-45,1.76.2-.18.06-.07-.07.06s-.32.27-.34.42a24.07,24.07,0,0,0-.29,3.27c.69,28.45-1.36,57,1.95,85.7l4.08-8.32c1,.71,2.07,1.06,2.29,1.7,1.18,3.47-.81,9.24-3.94,11.21-3.77,2.37-7.72,4.29-12.42,3.82-7-.71-13.91-1.33-20.86-2-4-.37-8.06-.77-12.1-1-2-.14-4.23-.54-6,.13-7,2.68-14.63,1.2-21.76,3.13a8.94,8.94,0,0,1-4.39,0c-6.39-1.71-12.76-1.12-19.18-.3a21.62,21.62,0,0,1-5.51,0c-10-1.36-19.79-.06-29.59,1.59C20.16,712.54,20.15,712.51,18.82,709.58ZM146,703.73v-92.1l-8-.36c-.29,31.62-4,62.57-1.07,93.8ZM254.83,599.8c-3.61.23-6.53.66-9.42.56-5.87-.2-11.77-1.27-17.59-.93-10.77.62-21.5,2-32.26,3.06-8.57.82-17.15,1.83-25.75,2.19-5.46.22-11-.65-16.46-.9-1.63-.08-4-.78-3.59,2.83a64.41,64.41,0,0,0,16.77,1.11c7.33-.27,14.67-.32,22-.75q10.69-.63,21.36-1.86c12.75-1.45,25.44-3.75,38.36-2a46.56,46.56,0,0,0,6.16,0C254.56,601.88,254.7,600.86,254.83,599.8Zm-108.77,3.75-8.11-1c-1,4.08,1.91,3.35,3.49,3.67S145.47,607.75,146.06,603.55Z"/><path class="cls-1" d="M206.8,364.84c-.53.05-1.27-.13-1.57.16-2.82,2.71-6.1,3.06-9.75,2.25a35.9,35.9,0,0,0-5.15-.33l2.52,5.09c1.67,3.44.39,5.66-3.49,5.83-2,.08-4.05-.2-6.07-.2-12.42,0-24.83,0-37.81,0a97.78,97.78,0,0,0-2.74,21.49c-.3,12.43-.29,24.88-.23,37.32q.13,24.78.57,49.55c.15,8.05.65,16.09,1,24.36,3.36.84,7.53-.28,9.95,4.26-8,.95-15.74,0-22.9,2.83-.32,3.14-.62,6.13-.93,9.24-4.62-1.24-5.47-2.36-5.5-7.74,0-6.11,5.41-6,9.38-7.59,1.41-9.91,1-19.82.83-29.73q-.39-27.84-.73-55.69c-.12-9.94.11-19.89-.36-29.81-.28-5.81-1.62-11.58-2.48-17.37-4.21-2.44-7.53-9.72-6.32-14.24,2.54.23,2.89,2.5,3.82,4.13,1.12,2,2.35,3.36,4.95,3.79s5.09,2,7.81,3.13c4.62-2.18,1.91-6.18,2.45-9.63-5-1.24-10,.47-15.36-1.53,4.37-2.54,16.12-3.39,20.71-1.86a48,48,0,0,0-.49,5.16,48.46,48.46,0,0,0,.54,5.16h40.78c-1.42-2.75-2.73-5.26-4.22-8.15,5.33-4.8,11.37-.09,16.76-1.46,0-7.08,0-14.16,0-21.24-.05-16.91-.13-33.81-.14-50.72q0-9.65.23-19.28c.24-9.75.64-19.49.87-29.23.1-4.17,1-8.4-1.84-12.27-1.24-1.71,0-3.53,2.16-4a6,6,0,0,1,7.18,5.75,59.83,59.83,0,0,1-1.06,12.59,16.1,16.1,0,0,0,.75,9.08,13.35,13.35,0,0,1,.41,7c-2.69,13.48-1.89,27.12-2.29,40.71-.43,14.52-1.17,29-1.7,43.54-.16,4.41,0,8.84-.16,13.26-.06,2.19-.36,4.38-.55,6.57ZM138.55,509.71c3.07-1.2,2.39-3.1,2.34-4.58-.53-16.33-1.13-32.67-1.7-49q-.23-6.3-.36-12.61c-.17-7.44-.31-14.88-.46-22.31l-1.16,0C137.65,450.55,138.1,479.87,138.55,509.71Zm-4.05-131c1.26,10.6,2.52,21.05,3.68,30.71C139,400,140,389.65,141,379.15c-1.89-.26-3.3-.48-4.72-.63A9.92,9.92,0,0,0,134.5,378.67Zm72-105c3.47-10.93,3.31-15.81,0-18.89Zm.7-42.9-1.63.41c.52,1.56,1,3.11,1.57,4.67l1-.29C207.81,234,207.5,232.35,207.18,230.76Z"/><path class="cls-1" d="M154.35,172.27c2.34-1.36,6-2.22,6.75-4.2,1.31-3.33,3.93-5.22,5.82-7.83,2.58-3.54,5.29-7,8.3-10.91-3.66-.93-4.65-3.3-3.5-5.94,1.72-4,5-1.37,8.15-1.08l8.33-14.71c-1.77-1.13-3.1-2.37-4.66-2.9-2.14-.71-3.33-2-2.74-4,.64-2.2,2.78-2.13,4.66-1.74,2.18.45,4.18,3.37,6.49,1.07,1.62-1.63,2.51-4,3.77-6,2.65-4.2,5.4-8.34,8-12.59,2.87-4.71,5.72-9.45,8.29-14.33a10.75,10.75,0,0,0,.79-5.2c-.34-7.89-1-15.78-1.23-23.68a40.26,40.26,0,0,1,1-8.72c.19-1,1.3-1.81,3-2.4.11,5.42.17,10.83.38,16.25.08,2.25-.83,4.84,1.88,6.48.46.27.54,1.76.3,2.52-2.9,9.06-1.34,17.24,4,25,3.75,5.44,7,11.27,10.3,17,1.24,2.12,2.55,3.08,4.82,1.42.58-.42,1.34-1,1.94-.91a6.21,6.21,0,0,1,3.37,1.25c.54.52.48,2,.19,2.94-.78,2.38-1.84,4.66-2.78,7l18.37,27.68a26.79,26.79,0,0,1,1.3-3.89c1.26-2.37,3.76-2.37,5.11,0,1.52,2.66,1.08,5.3-.32,7.89-.52.95-1,1.93-1.51,3.05.95.28,1.37.55,1.53.43,4.45-3,6.44-2.32,7.52,2.86a15.94,15.94,0,0,1,.11,6c-2.87,15.41-4.36,30.91-3.35,46.6.31,4.75.76,9.5,1.06,14.26.21,3.13-.85,4-5.49,3.93.58-10.42,1.08-20.83,1.77-31.22s1.59-20.77,2.39-31.14c-4.36,1-8.55,2.58-12.81,2.79-4,.2-8.38,2.56-12.33-1.15-2.13,2.38-4.34,4.14-7.69,2.8a3.88,3.88,0,0,0-3,.51c-2.49,1.54-4.46.92-6.49-.85-3.4-3-5.47-3.13-9.35-1-2.85,1.54-5,1.31-6.94-1-1.76-2.09-2.8-4.32-.16-6.83L214,173c1.08-2.37,1.86-4.07,2.91-6.39,2.25,1.57,4.39,3.06,6.63,4.64l2.68-2.52,3.38,6.76,2.9-6.44,5.06,3.92,4.53-3.06c3.2,1.83,6.52,4.77,10.31.3,4.28,6.15,7.39.75,11-.46-1.69-3-3.25-5.65-4.71-8.37s-3.41-3.69-6.64-3.6q-21,.57-41.93.5c-5.78,0-11.55-.76-18.62-1.27,1.8-1.3,2.51-2.2,3.31-2.3a43.26,43.26,0,0,1,6-.16c10.66.2,21.33.63,32,.58,6.39,0,12.77-.77,19.52-1.22-.42-2.76-1.47-5.16-3.62-6-2.71-1.06-3.14-2.89-3.79-5.27a28.69,28.69,0,0,0-3.39-7c-2.86-4.71-6-9.29-8.87-14-1-1.53-1.89-2.6-3.92-2.28-11.22,1.82-22.45,3.58-33.91,5.4l-10.39,18.34a103.22,103.22,0,0,0,27.46.64c8.51-1,17-2.18,25.65-.72-18.24,2.28-36.16,7.14-54.82,5.65-.66,2.39-.58,5.22-4.07,3.75-.39-.16-1.42.86-2,1.5-4.2,4.84-8.36,9.72-12.63,14.71,2.31,3.37,6.48,3.47,10.35,4.68l2.69-3.31c2.7,0,4.79,0,6.87,0,.86,0,2.25-.05,2.45.37a3.91,3.91,0,0,1,0,2.93,17,17,0,0,1-2.51,3.18l-4.85-3.47c-2.08,2.3-4.45,4.5-8.07,2.07-.6,1.49-1.09,2.73-1.75,4.38l-2.44-1.63c-2-1.38-2.43-5.47-5.57-4.48-1.93.6-3.2,3.22-4.84,4.86-.33.34-1,.35-1.65.55-2.07-2.2-.33-4.52-.3-6.73ZM214.18,91c-4,10.48-12,18.3-16.43,29.27l31.76-3.72C224.47,107.43,220.18,98.8,214.18,91Z"/><path class="cls-1" d="M795.28,688.26c.83,2,.14,3.27-2,3.59a81.47,81.47,0,0,1-8.21,1c-12.86.57-25.73,1.11-38.59,1.52q-36.71,1.17-73.4,2.19l-18.34.56c1,5.06,1.81,9.57,2.7,14.3-3.9.37-5.18-1.68-5.7-4.38a61.73,61.73,0,0,1-1.16-8.74c-.4-9.56-.82-19.12-.83-28.68,0-11.75.58-23.5.55-35.26,0-9.56-.6-19.12-.89-28.68a12.63,12.63,0,0,1,.67-4.63c2.45,3.57,1.53,7.64,2,11.47s.61,7.69.91,11.53c4.79.16,4.79.16,6.36-4.31,4.06-.22,8.27-.49,12.47-.67,19.12-.85,38.23-1.86,57.35-2.45,16.54-.51,33.09-.55,49.63-.79.92,0,1.85,0,2.77,0a3.48,3.48,0,0,1,3.56,3.5,3.62,3.62,0,0,1-3.28,3.83,43.06,43.06,0,0,1-5,.38c-18.76.38-37.52.72-56.28,1.12-15.45.34-30.89.61-46.33,1.17-6.93.25-13.83,1.11-21.23,1.74,2.23,22.51-.46,44.9,2.05,67.21Z"/><path class="cls-1" d="M413.34,585.66c.23-3.22.46-5.89.61-8.57.25-4.56-.09-9.23.87-13.63.66-3,2.77-5.94,4.82-8.41,2.46-3,6.09-2.87,9.8-1.57,1.28-6.49,2.94-12.35,7.42-16.76,3.12-3.08,6.56-5.83,9.89-8.68,1.7-1.45,3.25-.89,5,.23,9.08,5.85,15.22,13.69,16.73,24.56,9.27-.27,15.31,5.38,16,14.89.21,2.92-.16,5.88-.15,8.82s.18,5.65.29,8.77c2.75.12,4.74.14,6.71.32,2.93.27,4.47,1.72,4.17,4-.37,2.76-2.51,2.94-4.59,2.68-8.74-1.11-17.47-2.22-26.16-3.57a5.59,5.59,0,0,0-5,1.18,17.16,17.16,0,0,1-21.28.14,6,6,0,0,0-5.43-1.26c-8.69,1.35-17.44,2.38-26.18,3.43-1.84.22-3.82.15-4.15-2.43-.29-2.25.89-3.79,3.4-4C408.12,585.5,410.14,585.66,413.34,585.66Zm39.24-52.91,10.7,14.6c-1.7-6.23-4.43-11.7-10.61-14.7l-3.18-3.18c-8.68,4.77-14,11.35-14,17.14,9.19-12.61,9.19-12.61,12.39-13-.07.33,0,.79-.23,1a43,43,0,0,0-12.78,24.44c-.13.72-.2,1.46-.38,2.17-1.1,4.22-1.83,4.69-6.18,4.31-1.33-.12-2.67,0-3.81,0-.46,7.09-.87,13.46-1.3,20H434.9l14.72-31.13c2.33,11.71,9.6,20.56,13.59,31.16,4,.27,8.11.85,11.85.07-.62-6.94-1.19-13.28-1.79-20H465c-2.62-11.8-6-23.4-15.77-32.34ZM449,562.25c-3.16,7.26-6.12,13.85-8.85,20.52a4,4,0,0,0,.61,3.42c3.4,4.09,12.84,4.19,16.3.13a4.58,4.58,0,0,0,.66-3.93C455.07,575.84,452.13,569.39,449,562.25Zm32.66,24c-.16-5.34-.06-10.45-.55-15.5a26.11,26.11,0,0,0-2.37-9.41c-2.51-4.83-4-5-9.26-3.26-1,.34-2.07.51-3.21.78-.13,2.36.45,3.8,3,3.45a27.09,27.09,0,0,1,4.32-.62c2.46.08,4.27,1.14,4.27,4,0,6.72,0,13.45,0,20.59Zm-50.23-27.38a26.76,26.76,0,0,1-4.05-1.36c-2.59-1.35-4.43-.64-6.32,1.4a15.21,15.21,0,0,0-4.1,10.51c-.14,5.31-.71,10.61-1.06,15.91,0,.31.22.64.52,1.41l4.21-.59a49.63,49.63,0,0,1-.86-6.54c0-4.4.34-8.8.54-13.2.17-3.61,1.56-4.93,5.14-4.74,1.09,0,2.15.49,3.24.62C431.25,562.63,432,561.34,431.43,558.92Z"/><path class="cls-1" d="M671.23,453.53c14-.48,27.21-1.12,40.43-1.34,21.18-.34,42.36-.37,63.54-.62,6.58-.07,13.15-.4,20.08-.63-.23-2.53-1.23-5.3,2-5.52,2.16-.14,3.73,1.41,4.42,3.53.78,2.39-.7,4.46-3.77,4.92a101.08,101.08,0,0,1-12.59,1.43c-21.71.47-43.42.59-65.12,1.14-19.67.5-39.33,1.39-59,2.09-1.77.06-3.54,0-6.34,0,1.23-1.58,1.65-2.7,2.4-3,10.22-4,20.61-7.58,30.71-11.86,11.18-4.73,22.16-9.92,33.09-15.19,5.3-2.55,5.2-2.85,3.82-8.47-.43-1.74-.78-3.28,1.35-4.1,2.67,2.58,2.67,2.58,3,9.67,10.3,2.8,20.92,5,31.06,8.65s20.85,5.39,29.69,12.27c-4.39-.92-8.83-1.67-13.17-2.79-10.84-2.8-21.63-5.81-32.45-8.66-5.34-1.4-10.68-2.81-16.09-3.82a10.79,10.79,0,0,0-5.76.95c-12.54,5.25-25,10.71-37.52,16-3.37,1.42-6.92,2.44-10.37,3.7C673.65,452.24,672.76,452.77,671.23,453.53Z"/><path class="cls-1" d="M662.33,475.62c3.86-3.32,7.94-3,11.49-3.36,8.78-.93,17.61-1.33,26.44-1.66,14.34-.54,28.7-.82,43-1.27,20.05-.62,39.92-3.25,59.81-5.66,7.86-1,14.22,2.63,17.21,9.87.9,2.18,2.24,4.5-1,6.11-.39.19-.49,1.62-.24,2.29.86,2.35-.43,3.33-2.72,4.57a35.77,35.77,0,0,1-2.57-4.84c-1-2.7-2.52-4.37-5.54-4.45-8.26-.21-16.54-.87-24.78-.6-13.42.43-26.81,1.68-40.22,2.17-15.82.58-31.66.58-47.49,1.08-9.85.31-19.7,1.09-29.85,1.67.76-1.9,2.43-1.9,3.91-2,11.37-.8,22.74-1.76,34.12-2.29,27-1.24,54.08-1.43,81.05-3.88,9.48-.86,19.09-.14,28.46-.14-1.84-4.12-4.86-5.89-10.23-5.35-9.88,1-19.73,2.29-29.62,3.06-11.54.91-23.1,1.6-34.67,2-17.66.61-35.34.77-53,1.38-6.78.23-13.54,1.19-20.31,1.76A18.78,18.78,0,0,1,662.33,475.62Z"/><path class="cls-1" d="M257.57,372.66c-.63-2.89-1.32-5.2-1.6-7.56-.49-4.13.74-5.84,4.84-6.27,3.24-.33,6.54-.06,10.37-.06.36-11.28.61-22.62-1.32-33.92-1,9.87-.11,19.93-3.35,29.44l-1.28,0a7.79,7.79,0,0,1-.44-2.28c1.86-17.43.83-34.91.9-52.37.06-13.43.54-26.86.58-40.29,0-6.06-.49-12.12-.95-18.16-.13-1.69-.86-3.64,1.15-4.24a7,7,0,0,1,4.59.68,6.19,6.19,0,0,1,3.48,5.88,60,60,0,0,1-.64,9.29A184.3,184.3,0,0,0,271.1,288c.37,16.7,1.42,33.38,1.82,50.08.23,9.71-.25,19.44-.43,29.16,0,2.66-1.19,4.43-4.32,5.17v-8.85l-7.61-.53c-2.2,5.15,2.93,8.43,2.4,13.52-4.73.37-9.43,1.16-14.1,1-10.25-.31-20.5-1.05-30.75-1.7-1.5-.1-4,.49-3.93-1.84.1-2.71,2.68-1.79,4.36-1.75,11.22.24,22.45.56,33.68.8C254,373.08,255.71,372.8,257.57,372.66Zm12.64-119.2c.6-4.2,3.22-8.64-.62-13.12a8.69,8.69,0,0,0-.46,1.72C269.47,245.86,269.85,249.66,270.21,253.46Z"/><path class="cls-1" d="M647.12,483.28c1.75.27,2,1.84,2.18,3.48.34,4,.87,8.06.91,12.1.28,23.34.37,46.68.66,70,.08,6.42.6,12.83,1,19.83l8.64.55c.5,3.44-1.32,5.92-2.85,8.3-.59.92-2.6,1.42-3.88,1.3-4.91-.45-9.78-1.23-14.88-1.92.92-3.54,4.06-1.55,5.95-3.56H615.48c-.12-.7-.38-2.23-.75-4.43l-51.82,1.41c-1,1.13-1.8,2.56-3,3.24a10.66,10.66,0,0,1-4.27.82A3.28,3.28,0,0,1,552,591.8c-.18-.58-1-1.07-1.57-1.4-1.68-.88-2.06-2.33-1-3.63.78-1,2.49-2.23,3.44-2,10.39,2.65,20.81.53,31.2.3,12.12-.27,24.24-1,36.37-1.5a12,12,0,0,1,2.57.62c-.13,1.57-.25,3.11-.38,4.65h24.12c.16-7.39.42-14.63.46-21.86q.17-31.49.18-63C647.32,497.16,647.19,490.29,647.12,483.28Zm2.06,109.54c0,.41-.11.83-.16,1.24l4.64.41.1-.84Z"/><path class="cls-1" d="M446.15,438.05c-9.23-1.87-14.9-1.12-20.72,2.81-2.28-1.16-4.75-2.29-7.07-3.67a2.72,2.72,0,0,1-1.05-2.25,2.61,2.61,0,0,1,1.76-1.7,81,81,0,0,1,10.41-1q19.9-.15,39.81,0a54.77,54.77,0,0,1,8.76.8c1.07.18,2,1.25,3,1.91a11.35,11.35,0,0,1-2.2,2.66c-1.81,1.2-3.83,2.09-5.75,3.11-6.46-3.75-9.68-4.22-21.68-2.87a82,82,0,0,0,7.7,3,8.74,8.74,0,0,1,5.74,4.78c2.42,4.74,4.93,9.35,5.47,14.9,1,9.81-6.34,22-19.27,21.24a38.34,38.34,0,0,0-4.42,0c-11.51.64-19.48-9.8-18.77-21.08.39-6.18,3.2-11.27,6.24-16.3a9,9,0,0,1,3.81-3C440.51,440.13,443.27,439.2,446.15,438.05Zm17.58,19.06c-.28-8.18-2.25-11.59-9-15.14-7.17-3.79-18.44,1.46-19.7,9.47-.86,5.44-.83,11,1.13,16.3a11.93,11.93,0,0,0,2.46,4.19c3.59,3.7,7.73,6.13,13.21,4.57,5.8-1.66,9.6-5.18,10.66-11.27C463,462.54,463.34,459.82,463.73,457.11Z"/><path class="cls-1" d="M606,450.23c.49,1.24,1,2.49,1.61,4l-83.38-2.06c-.34-4.15-.68-8.33-1.09-13.44,33.52,4.24,66.51,6.52,100.63,7.87-1,2-1.44,3.46-2.39,4.43a37.21,37.21,0,0,1-4.45,3.23c-2.22,1.67-3,3.82-2.94,6.7.2,7.36,0,14.74,0,22.11,0,1.72-.27,3.45-.48,6-3.57-5.42-3.68-30.74-.54-38.15-2.45-.23-4.76-.44-7.09-.64-25.35-2.59-50.68-5.19-76.28-7.83v4.75a79.15,79.15,0,0,0,8.16,1.14c15.07.59,30.14,1,45.21,1.57,1.65.06,3.29.41,4.94.41C593.89,450.37,599.92,450.28,606,450.23Z"/><path class="cls-1" d="M146.91,358.34l-5.9,1.23c-.16-3.68-.26-7.63-.53-11.56-.82-12.09-1.95-24.16-2.5-36.25-.38-8.43-.07-16.89.05-25.34.09-5.88.53-11.76.56-17.65,0-8.42-.19-16.85-.26-25.28,0-1.59.18-3.19.3-5.25,4.82.09,7.47,3.16,9.51,6.06a12.6,12.6,0,0,1,2,8.3c-2.66,18-3.61,36.14-4.45,54.31-.7,15.25.1,30.39,1.16,45.56C147,354.46,146.91,356.46,146.91,358.34ZM143.42,329a14.84,14.84,0,0,0,.34-1.92c.56-23.84-.81-47.75,2.51-71.5A24.67,24.67,0,0,0,146,249c-.19-1.41-.92-2.73-3-2.34C144.87,273.91,138.48,301.16,143.42,329Z"/><path class="cls-1" d="M478.51,493.47c1.32-2.27,5.05.78,5.25-3.47-2.07.24-4,.61-5.87.65-7.33.15-14.67.14-22,.28-6.07.11-12.13.58-18.19.46-7-.15-13.92-.77-20.89-1.19-.83-.05-1.67-.12-2.56-.19-.05,4.06,3.84,1.41,4.86,3.38-3.12,3.81-6,4.29-8.19.83-2.43-3.86-6.12-4.93-10.05-6-3.28-.89-7-.62-9.95-3.25.95-3.12,3.3-3.07,5.7-2.86,15,1.31,30,3.12,45,3.76,10.42.45,20.92-.53,31.36-1.22,9.52-.63,19-1.73,28.52-2.61a4.18,4.18,0,0,1,2.18.07,26.23,26.23,0,0,1,3.17,2.44c-.93.74-1.75,1.81-2.81,2.14-2.62.8-5.39,1.14-8,1.9-3.33,1-6.51,1.93-8.64,5.27C485,497.63,482.22,497.34,478.51,493.47Z"/><path class="cls-1" d="M479.23,631.25c-.44,3.38-1.08,6.75-1.27,10.15-.68,12.09-1.32,24.18-1.76,36.29-.25,6.76,0,13.53-.08,20.3,0,2.66-.21,5.32-.32,8l-1.15.3c-.51-.69-1.56-1.48-1.46-2.06,2.73-15.87.6-31.87,1.34-47.79.46-10.09.81-20.19,1.15-30.29.15-4.23.19-8.45.17-12.68,0-3.58-1.32-5.47-4.92-6.22-7-1.46-14.05-2.81-21.14-3.79-2.24-.32-4.66.68-7,1.08-5.07.87-10.18,1.56-15.2,2.66-4.29,1-5.21,2.43-5.11,6.93.4,18.12.89,36.25,1.23,54.37.18,9.56.07,19.11.19,28.67,0,2,.58,4,.75,6a16.27,16.27,0,0,1-.28,3c-2.91-.26-2.52-2.18-2.54-3.72-.09-4.78,0-9.56-.13-14.34-.4-15.61-.75-31.23-1.36-46.84-.36-9.27-1.26-18.52-1.77-27.79-.32-5.8,1.93-8.67,7.47-9.68,4.7-.85,9.53-2.34,14.16-1.94,6.92.6,13.81-.69,20.67.29,3.64.53,7.29,1,10.9,1.6,5.62,1,7.61,3.47,7.57,9q-.07,9.36-.18,18.73Z"/><path class="cls-1" d="M614.37,507.39l.74-5.32c-7.71,0-15.19,0-22.66,0-.51,0-1.37.19-1.46.48-1.31,4.16-4.9,3.18-7.74,3.23-14.88.29-29.78.5-44.67.44-3.46,0-6.94-1.18-10.39-1.9-2.63-.55-2.75-2.57-2.53-4.72.24-2.34.79-4.52,3.69-4.6,3.49-.09,7-.11,10.47.05,17.25.78,34.49,1.75,51.74,2.39,7.88.3,15.78,0,23.67,0a14.46,14.46,0,0,1,4.9.42,3.76,3.76,0,0,1,1.87,2.82C622.14,502.79,618,506.48,614.37,507.39Zm-77.77-8c3.1,2.65,5.76,3.62,9.06,3.38,3.65-.27,7.34.1,11,.11,9.87,0,19.74,0,29.61,0l0-.32Z"/><path class="cls-1" d="M515.74,719.57c-15.25-2.79-29.91-2.4-44.6-1.89q-19.54.68-39.11.65c-11.2,0-22.41-.71-33.61-.66-5.24,0-10.47,1.09-16,1.72-.59-3.09,1.43-3.71,3.35-4,5.63-.83,11.28-1.95,16.93-2.06,9.55-.2,19.11.46,28.66.45,12.86,0,25.71-.22,38.57-.51,13.8-.3,27.59-.57,41.25,1.9C514.48,715.78,514.48,715.8,515.74,719.57Z"/><path class="cls-1" d="M816.34,676.07c-.71.33-1,.6-1.37.61-14.15.27-28.3.66-42.46.71-7.89,0-15.78-.64-23.67-.75-3.48,0-7,.77-10.44.73-5.87-.06-11.74-.35-17.6-.79-6.84-.51-13.54-.78-20,2.47-5,2.5-10.32,2.31-15.68,1.53-4.73-.7-9.44-1.56-14.2-1.93-3.57-.28-7.2.1-11.27.19-1.26-1.37-.91-3,1.33-3.75a14.52,14.52,0,0,1,5.92-.88c6.94.7,13.89,1.45,20.75,2.67a23.09,23.09,0,0,0,13-1c6.69-2.68,13.46-2.8,20.57-1.88,6.69.86,13.54.63,20.32.61,11,0,22-.16,33-.51,7-.22,13.93-.88,20.89-1.4,5.67-.42,11.34-1.07,17-1.35C816.18,671.14,816.33,671.53,816.34,676.07Z"/><path class="cls-1" d="M816.2,501.82c2.84,6.87,2.31,8.6-3.06,9.55-.14-1.57-.28-3.1-.43-4.84a9,9,0,0,0-2.05-.46c-12,.11-23.92.47-35.87.35-14.51-.14-29-.87-43.51-1q-22.35-.19-44.71.32c-9.19.22-18.36,1.08-27.54,1.61a3.42,3.42,0,0,1-2.8-1.22,34.88,34.88,0,0,1,4.35-.87c13.93-1,27.85-2.49,41.8-2.84,16.32-.41,32.66.34,49,.26,19.84-.11,39.68-.56,59.51-.86C812.7,501.79,814.51,501.82,816.2,501.82Z"/><path class="cls-1" d="M821.71,711.72c.06,3.6-1.86,3.89-3.66,4-6,.33-12.11.69-18.17.75-22.43.23-44.87.44-67.31.48-16.65,0-33.3-.24-50-.35-4,0-8.07.07-12.1,0a22.67,22.67,0,0,1-3.88-.89c1.37-.72,1.94-1.27,2.51-1.28C719.87,713.5,770.58,712.62,821.71,711.72Z"/><path class="cls-1" d="M818.66,536.46c0,10.84-.25,21.68.06,32.51.44,16,1.25,31.93,2,47.89.5,11.39,1.18,22.77,1.6,34.16a355.89,355.89,0,0,0,3.69,40c.53,3.47,1.68,7.21-.83,10.8-2.56-1.42-2.87-3.8-3.17-6.09-1.73-13.49-3.32-27-3.4-40.64-.07-12.28-.2-24.58-1-36.83-1.44-21.31-1-42.58-.11-63.88.26-6,0-12,0-18Z"/><path class="cls-1" d="M190.9,263.08c-.4-1.2-1.15-2.41-1.13-3.6.11-5.14.69-10.27.63-15.4-.09-7.14-.32-14.31-1.07-21.41-.31-2.89-2.17-5.63-3.47-8.79-3.78,2.64-4.12,6-4.78,9.17-2.9,13.88-2.2,27.73.47,42.16,2.68-.32,5.17-.6,7.66-.92,2.18-.27,4.34-.74,6.52-.82a2.5,2.5,0,0,1,1.85,1.56,2.39,2.39,0,0,1-1.21,2c-7.51,2-15.13,3.21-22.92,2.19-.75-.09-1.37-1.25-2.75-2.6l6.81-1.17c-.66-5.88-1.43-11.67-1.92-17.48-.89-10.51-.32-20.91,3-31,1-3.17,2.36-6.61,6.35-6.71,3.75-.09,5.11,3.26,6.47,6,2.92,6,3.1,12.52,3,18.91-.09,8.25-1,16.51-1.64,24.76a16.18,16.18,0,0,1-.75,2.91Z"/><path class="cls-1" d="M649,409.18c0,3.18.16,6.38,0,9.55-.76,12.65-1.75,25.28-2.38,37.93-.25,4.9.24,9.84.41,15.38a67,67,0,0,1,6.94-.67c1.14,0,3,.42,3.24,1.1a5.24,5.24,0,0,1-.62,3.84,8.16,8.16,0,0,1-7.48,4.55c-6.22.05-12.44.64-18.67.73-1.88,0-3.78-.83-6-1.35l1.37-2.54c-1.17-.11-2.22-.11-3.23-.31-1.91-.37-5.21,1.07-4.94-2.48.21-2.67,3-1.92,4.94-2,6.58-.11,13.16-.3,19.57-.45,1.68-21.53,3.3-42.42,4.92-63.32Z"/><path class="cls-1" d="M241.83,262.92l3.35.61c-.1.69,0,1.19-.22,1.35-5.7,4.62-12.41,4.93-19.28,4.4a3.84,3.84,0,0,1-1.9-1,4.34,4.34,0,0,1-.75-1.35c1.11-3.08,4-.91,6.27-2.66-.3-2-.67-4.5-1-7-1.14-8.16-2.57-16.3-3.27-24.5a30.62,30.62,0,0,1,1.4-11.35,16.73,16.73,0,0,1,4.84-7.13c3.38-3,8.55-1.19,10.05,3.63,1.3,4.15,1.66,8.6,2.4,12.93,1.69,9.76.12,19.36-1.43,29C242.12,260.71,242,261.61,241.83,262.92Zm-5.67-46.3c-3.6,1.55-5.48,3.25-6,6-.62,3.41-1.51,6.94-1.22,10.32.9,10.6,2.31,21.15,3.58,32.21l5.74-1.44C240.54,247.88,242.22,232.47,236.16,216.62Z"/><path class="cls-1" d="M498.5,595.21a22.31,22.31,0,0,1-.82-3.19c-.54-6.57-1.34-13.14-1.44-19.73q-.24-15.42.34-30.86c.32-8.17,2.26-16,6.93-22.93,1.33-2,2.91-3.77,4.4-5.63,1.23-1.53,2.5-3,3.87-4.71-3.89-3.73-8-3.66-12.2-2.6-2.17.54-2.78,2.22-2.66,4.69.4,8.26.43,16.53-2.12,24.85a28,28,0,0,1-1.22-5.16c-.26-5.52-.21-11.05-.43-16.57-.19-5,2.78-7.77,6.78-9.58a13.22,13.22,0,0,1,11.72.6c3.38,1.7,3.88,4,1.67,7.22-2.08,3-4.43,5.82-6.56,8.79-4,5.55-5.39,12-6.32,18.6-1.76,12.45-.84,24.89.42,37.33.46,4.57.49,9.19.56,13.79C501.46,592.3,501.29,592.3,498.5,595.21Z"/><path class="cls-1" d="M407.34,705.08c0-4.71-.14-9.11,0-13.5.48-12.49,1.28-25,1.61-37.46a166.89,166.89,0,0,0-3.25-37.76,117.64,117.64,0,0,1-1.77-12,10.24,10.24,0,0,1,.83-4.78c.29-.68,1.75-1.12,2.69-1.13.38,0,1.1,1.41,1.11,2.19,0,2.12-.59,4.29-.35,6.37.65,5.84,1.34,11.7,2.51,17.44,2.36,11.65,2.05,23.4,1.73,35.13-.36,13.77-1.11,27.53-1.68,41.29,0,1.1,0,2.21,0,3.31.18,2.92-1.2,4.33-4.07,4.83-3.25.58-6.45,1.47-9.65,2.3-1.38.36-2.89.5-3-1.17-.05-.78,1.35-2.11,2.33-2.4C399.93,706.7,403.51,706,407.34,705.08Z"/><path class="cls-1" d="M490.43,704.43c4.6,3,10.22,1.64,14,5.13-.82,2.15-2.08,2.2-3.7,1.74-3-.85-6.05-1.57-9.09-2.32-4.2-1-4.51-1.27-4.56-5.45-.1-8.1.06-16.21-.14-24.31-.32-12.87-1.31-25.74-1.12-38.6.13-8.34,1.84-16.67,2.87-25,.57-4.66,2.51-9.22.61-14.07a3.47,3.47,0,0,1,1.32-3.13c1.62-.74,2.79.45,3,2.14a17.06,17.06,0,0,1,.29,4.82c-1.25,9.09-3.08,18.13-3.85,27.26-.78,9.31-.81,18.7-.72,28.05.13,12.88.68,25.74,1,38.61C490.48,701.12,490.43,702.93,490.43,704.43Z"/><path class="cls-1" d="M577,574.34c6.11.7,12-.08,17.62,3.65-1.41.85-2.35,1.88-3.35,1.94-4.77.31-9.56.4-14.35.47-2.49,0-3.54-1.31-3.53-3.85,0-9.32-.17-18.65-.08-28a43.94,43.94,0,0,1,1.08-8.67c.72-3.49,3.29-5.69,6.24-7.34,5.38-3,11.14-1,12.64,5a102,102,0,0,1,2.17,16.3c.43,5.31.49,10.66.53,16a40.61,40.61,0,0,1-.83,6c-2.81-1-2.09-2.88-2.2-4.33-.71-9.53-1.36-19.07-2-28.6,0-.19,0-.37,0-.56-.62-4.67-2-6.71-4.75-7.22s-6.16,1.43-7.8,5a18.3,18.3,0,0,0-1.55,6.88c-.19,7.87-.08,15.74-.06,23.62C576.73,571.76,576.89,572.84,577,574.34Z"/><path class="cls-1" d="M303.7,578.06c5.51-3.69,11.34-2.92,17.08-3.67.14-1.23.35-2.29.36-3.34,0-8.28-.06-16.57,0-24.85a11.05,11.05,0,0,0-4.53-9.56c-3.91-3-7.77-1.93-8.77,2.9a133.1,133.1,0,0,0-2.16,16.92c-.41,5.31-.27,10.67-.5,16a13,13,0,0,1-1,3.26l-1.13,0a16.29,16.29,0,0,1-.78-3.88c.34-10.11.56-20.23,1.29-30.31.53-7.21,4.58-10.85,10.44-10.08a10.66,10.66,0,0,1,8.82,6.69,27.49,27.49,0,0,1,1.82,9.64c.13,9.55-.19,19.11-.24,28.67,0,2.11-.41,3.9-2.81,3.86-5.32-.08-10.63-.4-15.94-.7C305.21,579.54,304.8,578.94,303.7,578.06Z"/><path class="cls-1" d="M479.16,631.39c1.1-8.52,2.42-17,3.2-25.56.43-4.74-.71-5.75-6.59-7.7,2-.85,3.39-2,4.25-1.71,1.78.65,4,1.74,4.73,3.27a16.34,16.34,0,0,1,1.4,7.87c-1,12.42-2.4,24.81-3.46,37.22-1.48,17.21-.69,34.45-.44,51.68.05,3.31.06,6.63,0,9.94,0,1.33-.1,1.32-2.75,3-.21-26.2-2-52.16-.28-78.15Z"/><path class="cls-1" d="M833.76,714c-5.42.86-9.62-2.47-14.08-4.51-1.56-.71-2.15-3.55-3.42-5.86a84.3,84.3,0,0,0-31.7-2c-10.18,1.38-20.5,1.81-30.77,2.37-7.17.39-14.36.22-21.54.48a54.76,54.76,0,0,0-7,1.14c-1.13-1.93.26-2.79,1.68-3.09a61.47,61.47,0,0,1,9.25-1.39c10.84-.59,21.69-1,32.53-1.53a96,96,0,0,0,11-1.15c9.41-1.59,18.68-.79,28,1.13,3.54.73,7.07,2,10.84.42.82-.33,3.09.84,3.44,1.79,1.61,4.32,5.1,6,9,7.44,2.3.82,3.8,2.13,2.87,4.87Z"/><path class="cls-1" d="M669.42,687.13a23.67,23.67,0,0,1,3.94-.78c13.42-.42,26.85-.66,40.26-1.18,9-.35,18-1.24,27-1.59,10.12-.39,20.25-.44,30.37-.67,7-.16,14-.26,21-.63,2.66-.15,5.28-1,8.4-1.57.15.34.94,1.32.71,1.79a3.64,3.64,0,0,1-2.22,1.85,79.66,79.66,0,0,1-9.86,1.06c-14.15.49-28.36.26-42.46,1.38-24.81,2-49.64,2.05-74.48,2.22a15.92,15.92,0,0,1-2.45-.36Z"/><path class="cls-1" d="M949.55,714.07c-1,3.67-3.56,3.56-5.58,3.46-7.7-.38-15.44-.67-23.06-1.76a109.64,109.64,0,0,0-28-.9,126.59,126.59,0,0,1-13.22.51,35.59,35.59,0,0,1-5.43-.81c.61-.84.76-1.29,1-1.34,13.35-2.46,26.59-5.86,40.37-4.45,9.84,1,19.69,1.94,29.52,3.12C946.74,712.09,948.19,713.36,949.55,714.07Z"/><path class="cls-1" d="M421.73,598.17c-5.23,1.76-6.21,2.79-6,7.54.28,5.31,1,10.59,1.61,15.87.27,2.36.9,4.69,1,7,.47,13.42,1.06,26.85,1.15,40.27.07,8.61-.72,17.23-1,25.85-.12,4,.14,8.1.19,12.15,0,.83-.15,1.66-.22,2.46-2.64.22-2.54-1.49-2.55-2.91,0-8.29-.27-16.59.07-24.87.79-19.17-.71-38.23-2.23-57.29-.46-5.66-1.58-11.26-2-16.92a16.29,16.29,0,0,1,1.24-7.44C414.6,596.42,417.35,595.93,421.73,598.17Z"/><path class="cls-1" d="M399.27,595.86c-3.76-4.69-2.94-8.81-2.74-12.7.57-11.36,2-22.71,1.87-34.06-.08-10.43-1.45-20.92-7.69-29.91-1.86-2.7-4.2-5.07-6-7.79-2.1-3.11-1.44-5.65,1.93-7s7.16-2.29,11.66,0c-4.62.81-8.93-.16-12,3.82a29.64,29.64,0,0,0,3,3.93c6.64,6.17,9.76,14,11.36,22.72,2.54,13.86,2.28,27.72.42,41.65-.65,4.86-.35,9.84-.6,14.76A29.29,29.29,0,0,1,399.27,595.86Z"/><path class="cls-1" d="M648.72,382.44c.63,4.69,1.24,8.82,1.71,13,.27,2.41-1.16,3.25-3.38,3.17-5.29-.17-10.57-.4-15.86-.45-3.47,0-6.94.32-10.4.25-1,0-2-.88-3-1.36.74-.89,1.35-2.33,2.25-2.54a24.29,24.29,0,0,1,5.47-.14h20.64c-.21-2.09-.41-4-.64-6.34H617c-.49,1-.92,1.88-1.56,3.19-2.51-1.24-4.84-2.24-7-3.53-.79-.47-1.82-1.81-1.64-2.41a4.43,4.43,0,0,1,2.37-2.61c1.31-.46,2.9-.19,4.36-.19h35.17Z"/><path class="cls-1" d="M154.35,172.27l.15-.18c-2.54,1.77-2.12,4.36-2,6.94.58,16.38,1.14,32.76,1.58,49.14a42.94,42.94,0,0,1-.8,8.21c-.23,1.36-1.37,2.45-2.8,1.46-.49-.34-.37-1.87-.21-2.81.28-1.73,1.21-3.45,1.13-5.15-.6-12.87-1.46-25.73-2.07-38.6-.49-10.28-.75-20.57-1.07-30.85a10.27,10.27,0,0,1,.43-2.23c2.83-1.19,5.77-2.4,8.32-.1s1.23,5.54.31,8.27A46.32,46.32,0,0,1,154.35,172.27ZM153.24,166c1.65-1.92,2-3.31,0-5.87Z"/><path class="cls-1" d="M228.51,509.71c-.73-.85-1.91-1.61-2.12-2.57-1-4.65-1.76-9.34-2.52-14a6.82,6.82,0,0,1,.19-2.73c.86-3.35,1.23-7.29,5.44-8.17,4-.84,7.26,1.38,9.66,4.18,5.41,6.3,5.45,13.75,3.5,21.34-.21.8-1.74,1.58-2.74,1.7-.45.06-1.58-1.5-1.59-2.33,0-2.55.44-5.11.57-7.67A13.45,13.45,0,0,0,234.67,489c-.93-.94-2.93-2-3.75-1.59a5,5,0,0,0-2.48,3.76c.08,4.2.79,8.38,1.14,12.57.15,1.83,0,3.69,0,5.54Z"/><path class="cls-1" d="M208,209.9c-4.22-.31-6.82-2.26-8.3-5.45-1.7-3.62-3.56-7.29-4.43-11.14a9.58,9.58,0,0,1,4.29-10.59c5.58-3.57,12.29.24,13,7.49C213.23,197.13,211.51,203.62,208,209.9Zm-1.66-4.39c1.72-5.73,3.57-10.53,1.8-15.7-.75-2.18-2-4-4.81-3.44a4.94,4.94,0,0,0-3.72,5.37C200.34,196.63,201.9,201.23,206.32,205.51Z"/><path class="cls-1" d="M617.1,514.41a69.58,69.58,0,0,1,1.08,21.9c-1.51,13.13-3.61,26.2-1.83,39.48a8.31,8.31,0,0,1-.25,2.13c-2.36.45-2.66-1.4-2.77-2.64a144.2,144.2,0,0,1-.88-16.46c.36-10.46,1.29-20.89,1.83-31.34.16-3.11-.24-6.25-.34-9.38C613.87,516.08,614.37,514.46,617.1,514.41Z"/><path class="cls-1" d="M282.2,577.74c0-2.31.11-4.64,0-7-.64-10.81-1.25-21.63-2.05-32.43a127.39,127.39,0,0,1,.48-24c2.64.06,3.63,1.12,3.69,3a20.37,20.37,0,0,1-.06,4.42c-1.73,9,.45,17.94.9,26.9.38,7.89.25,15.82.11,23.72,0,1.86-1,3.7-1.52,5.55Z"/><path class="cls-1" d="M178.45,509.73c0-4.33.19-8.32-.07-12.28-.15-2.34-.68-5.33-3.51-5.57s-3.64,2.75-4.23,5c-.63,2.44-.66,5-1.11,7.54-.36,2,.59,4.52-2.34,6-.46-1-1.19-1.88-1.24-2.8-.36-6.09-.46-12.16,3.49-17.4,3.26-4.33,7.89-4.58,10.93-.24,3.93,5.61,4.12,12.08,3.08,18.54C183,511.29,180.9,511.2,178.45,509.73Z"/><path class="cls-1" d="M570.7,630.75a8,8,0,0,1,.55-2.48c2.58-3.53,5.54-6.81,7.77-10.53,1.24-2.07,1.3-4.84,1.93-7.28.57-2.23,1.19-4.43,1.83-6.81,3.24.89,3.48,2.4,2.83,4.74a45.56,45.56,0,0,0-1.43,8.05,7.34,7.34,0,0,0,4.08,7.71,24.83,24.83,0,0,1,8,8c-5.6-2.62-10.44-6.29-15.69-10-1,2-2.12,4-3.08,6C576.19,630.83,574.24,631.86,570.7,630.75Z"/><path class="cls-1" d="M327.56,630.46c-3.18,1.4-5.29,1-6.69-2-1.1-2.31-2.33-4.55-3.35-6.53l-14.79,10.55a13.18,13.18,0,0,1,6.64-8c4.46-2.56,5.3-6.26,4.5-10.78-.32-1.79-1.12-3.51-1.32-5.3a20.8,20.8,0,0,1,.38-4.42l1.2-.27a16.41,16.41,0,0,1,2.13,2.7,6.38,6.38,0,0,1,.47,2.7c.15,7.7,4.61,13.16,9.46,18.45A11.55,11.55,0,0,1,327.56,630.46Z"/><path class="cls-1" d="M189.74,361.14a50.08,50.08,0,0,0,.47-5.64c-.17-5.28-.51-10.56-.75-15.84-.09-2-.23-4.19,2.22-5,2-.68,4.45.85,5.63,3.36,1.65,3.53,1.22,7.92-1.85,12.91-.29-4.24-.51-7.47-.73-10.71l-.9,0c-.06,1.12-.16,2.24-.17,3.35,0,4.21,0,8.41,0,12.61C193.61,358.51,192.86,360.36,189.74,361.14Z"/><path class="cls-1" d="M198.79,533.68c1.66-3.07,2.92-5.4,4.28-7.93.88.4,1.74.52,2.07,1,1.69,2.44.47,7.27-2.36,9.85-2.13,1.94-4.9,2-7.54.23a7.7,7.7,0,0,1-2-1.8c-2.53-3.73-5-7.52-7.41-11.26,1.91-2,3.33-1.29,4.5,0,1.46,1.63,2.69,3.46,4.11,5.13C195.64,530.39,197,531.75,198.79,533.68Z"/><path class="cls-1" d="M251.1,367.57a39.62,39.62,0,0,1-5.73,1.17c-7.13.4-14.27.66-21.41.87a13.79,13.79,0,0,1-4.88-.61c-.94-.32-1.56-1.55-2.32-2.37.84-.55,1.68-1.59,2.52-1.59,9.35.08,18.7.31,28.05.54a31.37,31.37,0,0,1,3.58.48C251,366.56,251,367.07,251.1,367.57Z"/><path class="cls-1" d="M402.81,508c2.91,4,2.92,18,.31,26.69C400.29,528.52,400,512.63,402.81,508Z"/><path class="cls-1" d="M533.44,485.38c-2.42-10.43-3-20.78-.78-31l2.24.09C534.12,464.77,535.44,475.13,533.44,485.38Z"/><path class="cls-1" d="M364.53,484.76c-2.67-9.8-.3-19.82-1.61-30.46,1.3.65,2.1,1,2.81,1.43.24.16.32.66.34,1C366.55,466.12,367.43,475.53,364.53,484.76Z"/><path class="cls-1" d="M608.63,411.05c2.1-.07,2.26,1.32,2.31,2.92.24,7,.57,13.94.77,20.91,0,1.88.68,4.28-3,4.59-.46-7.44-1.06-14.83-1.3-22.24-.06-2.08.89-4.2,1.38-6.3Z"/><path class="cls-1" d="M449,513.75a29,29,0,0,1,5.11-1.85c.78-.14,2.42.75,2.51,1.34.14,1-.52,3-1,3.1-2.75.36-4,1.82-4.93,4.32a1.61,1.61,0,0,1-3,.19c-1-2.32-1.91-4.22-4.87-4.42-.49,0-1.39-2.23-1.09-3s2-1.53,2.94-1.4C446.11,512.19,447.55,513.15,449,513.75Z"/><path class="cls-1" d="M290.09,411c.06,4.71.33,9.43.14,14.14-.18,4.54-.82,9-1.28,13.77-2.06.22-2.46-1-2.41-2.62.11-3.86.23-7.72.33-11.58.09-3.48.28-7,.19-10.45-.05-2.4.76-3.5,3.22-3.08Z"/><path class="cls-1" d="M178.26,302.91c1.72.63,3.68.83,4.79,1.9,1.32,1.29,2.66,3.35,2.61,5-.06,1.93-1.38,4-2.69,5.59-.42.51-3.21.07-3.73-.71-2.15-3.25-3.19-6.92-2.1-10.87C177.26,303.43,177.93,303.17,178.26,302.91Z"/><path class="cls-1" d="M231.22,302.33a26.33,26.33,0,0,1,4.38,1.72,5.88,5.88,0,0,1,1,8.7,3.81,3.81,0,0,1-6.35-.76C228.8,309.18,229,306.2,231.22,302.33Z"/><path class="cls-1" d="M833.76,714.06c2.18-3.57,5.83-2.36,8.94-2.64,5.36-.47,9.29.52,12.36,2.88a6.2,6.2,0,0,1-2,.87c-5.47.1-10.94.19-16.41.1-1,0-1.93-.87-2.9-1.33A.57.57,0,0,0,833.76,714.06Z"/><path class="cls-1" d="M152.61,522.33c-3.07,2.8-10.52,3.49-16.63,1.54C138,520,147.06,519.17,152.61,522.33Z"/><path class="cls-1" d="M466.63,376.29c-2.66,1.94-4.7,3.54-6.87,4.94a2.49,2.49,0,0,1-2-.3c-.49-3.46-4-2.77-6.23-4.1C456.48,373.35,461.55,373,466.63,376.29Z"/><path class="cls-1" d="M367.6,368c.22-.63.26-1.51.71-1.85,4.62-3.55,9.32-7,14-10.46,3.23,2.88,3.43,3.59.53,5.09-5,2.6-10.22,4.74-15.34,7.07Z"/><path class="cls-1" d="M446.9,376.33c-3,2.07-7.07.77-6.84,5.78a62.47,62.47,0,0,1-6.08-3.68,3.29,3.29,0,0,1-1.12-2.75,3.12,3.12,0,0,1,2.34-1.82C439,373.88,442.83,373.82,446.9,376.33Z"/><path class="cls-1" d="M219.07,340.83c1.15,6.39.23,12.66-.19,18.93,0,.58-1.16,1.08-1.89,1.71C214.8,355.78,215.57,347.07,219.07,340.83Z"/><path class="cls-1" d="M193.45,175.1c-1.34-4.44-1.28-4.53,5-7.12l6.51,6.06Z"/><path class="cls-1" d="M205.75,708.07l-13,1c-1.66-1.53-1.82-3,0-4.13C195.36,703.29,201.93,704.51,205.75,708.07Z"/><path class="cls-1" d="M451.46,502.62c0,.73.26,1.61-.06,2.14a17.79,17.79,0,0,1-2.29,2.57c-.89-1-2.17-1.79-2.56-2.93s.27-2.47.35-3.73c.11-1.56.34-3.11,2.33-2.94s2.08,1.72,2.1,3.26c0,.54,0,1.09.07,1.63Z"/><path class="cls-1" d="M206.63,365l3.24-1.73c1.45,7.28,1.18,8-3.09,8.92l.2.18q-.07-3.78-.17-7.55Z"/><path class="cls-1" d="M214.21,701c1.14,1.35,2.25,2.09,2.48,3a2.05,2.05,0,0,1-2.51,2.58,4.31,4.31,0,0,1-2.5-2.67C211.51,703.36,213,702.29,214.21,701Z"/><path class="cls-1" d="M174.82,705.85c-.73,1.89-1.8,2.52-3.33,1.59a2,2,0,0,1-.41-1.8C172.32,704.5,173.57,704.8,174.82,705.85Z"/></svg>