<svg id="Capa_1" data-name="Capa 1" xmlns="http://www.w3.org/2000/svg" viewBox="0 0 381.96 307.1"><defs><style>.cls-1{fill:#804f5a;}</style></defs><path class="cls-1" d="M45,165.47c0,5.61-2.68,8.06-6.53,8.06S32,171.08,32,165.47s2.68-8.12,6.52-8.12S45,159.81,45,165.47Zm-11.4,0c0,3.91,1.21,6.68,4.87,6.68s4.88-2.77,4.88-6.68-1.21-6.73-4.88-6.73S33.64,161.51,33.64,165.47Z"/><path class="cls-1" d="M56,169.51c.16,1.61,1.43,2.64,4,2.64,3.08,0,4.78-1.83,4.89-6.91l0,0A5.33,5.33,0,0,1,60,168.08c-3.64,0-6.06-1.92-6.06-5.38s2.73-5.35,6.06-5.35c3.75,0,6.41,1.93,6.41,7.56,0,5.16-1.92,8.62-6.41,8.62-3.87,0-5.48-2-5.66-4Zm4-10.77c-2.44,0-4.4,1.47-4.4,4,0,2.25,1.63,4,4.4,4,3.64,0,4.49-2.42,4.49-3.94C64.46,160.86,63.19,158.74,60,158.74Z"/><path class="cls-1" d="M38.83,190.81H34v-1.25h1.09c2.6,0,3.54-.34,4-2.95h1.38l0,15.82H38.85Z"/><path class="cls-1" d="M64.17,194.72c0,5.61-2.68,8.07-6.53,8.07s-6.52-2.46-6.52-8.07,2.68-8.11,6.52-8.11S64.17,189.06,64.17,194.72Zm-11.4,0c0,3.91,1.21,6.68,4.87,6.68s4.88-2.77,4.88-6.68S61.31,188,57.64,188,52.77,190.76,52.77,194.72Z"/><path class="cls-1" d="M322.24,173.18H310.13c.17-1.81.71-3.74,5.47-6.24,3.53-1.85,4.78-2.73,4.78-4.83,0-2.3-1.47-3.37-3.95-3.37-3.53,0-4.27,2.14-4.34,4.22h-1.65c0-3.93,2.35-5.61,6-5.61,4.22,0,5.59,2.53,5.59,4.79,0,2.7-1.7,3.82-3.87,5-4.4,2.4-5.61,3.2-6,4.5h10.06Z"/><path class="cls-1" d="M344.57,165.47c0,5.61-2.69,8.06-6.53,8.06s-6.53-2.45-6.53-8.06,2.69-8.12,6.53-8.12S344.57,159.81,344.57,165.47Zm-11.4,0c0,3.91,1.2,6.68,4.87,6.68s4.87-2.77,4.87-6.68-1.21-6.73-4.87-6.73S333.17,161.51,333.17,165.47Z"/><path class="cls-1" d="M322.24,202.43H310.13c.17-1.81.71-3.73,5.47-6.24,3.53-1.85,4.78-2.72,4.78-4.82,0-2.31-1.47-3.38-3.95-3.38-3.53,0-4.27,2.15-4.34,4.23h-1.65c0-3.94,2.35-5.61,6-5.61,4.22,0,5.59,2.52,5.59,4.78,0,2.7-1.7,3.82-3.87,5-4.4,2.39-5.61,3.19-6,4.49h10.06Z"/><path class="cls-1" d="M342.22,190.63c-.16-1.61-1.43-2.64-4-2.64-3.06,0-4.78,1.86-4.9,6.91l.05,0a5.33,5.33,0,0,1,4.85-2.88c3.64,0,6.06,1.92,6.06,5.39s-2.73,5.34-6.06,5.34c-3.76,0-6.42-1.93-6.42-7.56,0-5.16,1.93-8.62,6.42-8.62,3.87,0,5.47,2,5.65,4Zm-4,10.77c2.43,0,4.4-1.47,4.4-4,0-2.21-1.63-4-4.4-4-3.64,0-4.49,2.42-4.49,3.94C333.73,199.28,335,201.4,338.22,201.4Z"/><path class="cls-1" d="M274,161.8a87,87,0,0,0-28.5-41.05q-3.63-2.88-7.52-5.45V50.07c0-10.29,1.12-15.21,7.16-17.67l-.44-.67H228.56l-.45.67c6,2.46,7.16,7.38,7.16,17.67v63.52A109,109,0,0,0,190.19,98L150,31.73H134.15l-.45.67c6,2.46,7.16,7.38,7.16,17.67v55.6a81.41,81.41,0,0,0-13.18,7.85c-18,13.14-29.76,31.79-31.53,49.9-.74,7.63,1,18.67,8.49,24.7a15.63,15.63,0,0,0,14.22,3.35c8.8-2.19,16.19-11.12,19.32-18.49,5.08-11.93,5.82-24.78,5.36-34.36V107.14a85.38,85.38,0,0,1,34.29-7.33l38.87,63.24c7.83,13,19.24,15.44,28.19,15.44l.45-.67c-2.46,0-4.7-1.12-7.39-3.81v-55.7c2.07,1.4,4.06,2.87,6,4.39,26.35,21,37.91,56.48,28.77,88.37-10,34.91-44.59,60.92-81.4,61.8,0-.42,0-.83.09-1.23h-.12v-129a4.51,4.51,0,0,1-.17-1.17c-.11-4.42-2.2-7.61-4.4-10.34H175.53l-.31.67c4.15,2.46,4.92,7.39,4.92,17.68V256c0,8.64-.55,13.48-3.18,16.27h-.12l-.19,0-.11.15a11.18,11.18,0,0,1-1.4,1.62l-.46.43.62.11a120.21,120.21,0,0,0,12.24.84l1.72,0c18.23,0,36.89-6.22,52.54-17.51,16.31-11.77,28.13-28.15,33.28-46.12A84.64,84.64,0,0,0,274,161.8ZM141.14,140.74c.24,9-.69,20.57-5.25,31.27-2.9,6.82-9.65,15.06-17.63,17.05a13.25,13.25,0,0,1-12.05-2.87c-6.27-5.07-8.32-15-7.58-22.52,1.7-17.42,13.11-35.42,30.52-48.14a79.61,79.61,0,0,1,11.71-7.12S141,140.8,141.14,140.74Zm2.4-36.29V44l32.81,53.38A88.23,88.23,0,0,0,143.54,104.45Zm91.73,66.65a82.94,82.94,0,0,1-7.16-10.51l-36.3-59.91a108.93,108.93,0,0,1,43.46,15.87Z"/></svg>