<svg id="Capa_1" data-name="Capa 1" xmlns="http://www.w3.org/2000/svg" viewBox="0 0 347.23 326.5"><defs><style>.cls-1{fill:#a3a868;}</style></defs><path class="cls-1" d="M247.55,172.05a75.41,75.41,0,0,0-24.71-35.58c-2.09-1.67-4.27-3.25-6.51-4.73V75.2c0-8.92,1-13.18,6.2-15.32l-.38-.58h-14l-.39.58C213,62,214,66.28,214,75.2v55.06a94.43,94.43,0,0,0-39.07-13.51L140.12,59.3H126.35l-.38.58c5.23,2.14,6.2,6.4,6.2,15.32v48.19a70.28,70.28,0,0,0-11.42,6.81C105.17,141.58,95,157.75,93.42,173.45c-.64,6.61.9,16.18,7.36,21.41a13.55,13.55,0,0,0,12.32,2.9c7.64-1.9,14-9.64,16.75-16,4.4-10.34,5-21.49,4.65-29.79V124.67a73.78,73.78,0,0,1,29.72-6.36l33.69,54.82c6.79,11.25,16.67,13.38,24.43,13.38l.39-.58c-2.13,0-4.07-1-6.4-3.3V134.35c1.79,1.22,3.51,2.48,5.17,3.8,22.84,18.18,32.86,49,24.94,76.6-8.68,30.26-38.65,52.8-70.56,53.56,0-.36,0-.71.08-1.06h-.1V155.45a3.9,3.9,0,0,1-.15-1c-.1-3.84-1.91-6.61-3.82-9h-9.67l-.26.58c3.59,2.14,4.26,6.4,4.26,15.32v92.3c0,7.49-.48,11.69-2.76,14.11h-.1l-.16,0-.1.13a10.47,10.47,0,0,1-1.22,1.4l-.39.37.53.09a100.06,100.06,0,0,0,10.61.73l1.49,0a78.68,78.68,0,0,0,45.54-15.18c14.14-10.2,24.38-24.39,28.85-40A73.42,73.42,0,0,0,247.55,172.05ZM132.41,153.79c.21,7.84-.59,17.83-4.54,27.11-2.51,5.9-8.37,13-15.29,14.77a11.45,11.45,0,0,1-10.44-2.49c-5.43-4.39-7.22-13-6.57-19.52C97,158.56,106.93,143,122,131.94a69.12,69.12,0,0,1,10.15-6.17S132.33,153.84,132.41,153.79Zm2.09-31.45V70l28.44,46.26A76.36,76.36,0,0,0,134.5,122.34ZM214,180.11a72.64,72.64,0,0,1-6.2-9.11l-31.46-51.93A94.46,94.46,0,0,1,214,132.82Z"/></svg>