<svg id="Capa_1" data-name="Capa 1" xmlns="http://www.w3.org/2000/svg" viewBox="0 0 1080 1080"><defs><style>.cls-1{fill:#a3a868;}.cls-2{fill:#e8e3dd;}</style></defs><rect class="cls-1" width="1080" height="1080"/><path class="cls-2" d="M611.53,555.55A75.48,75.48,0,0,0,586.82,520c-2.09-1.67-4.27-3.24-6.51-4.72V458.71c0-8.92,1-13.19,6.2-15.32l-.38-.58h-14l-.38.58c5.23,2.13,6.2,6.4,6.2,15.32v55.05a94.58,94.58,0,0,0-39.07-13.51L504.1,442.81H490.33l-.39.58c5.24,2.13,6.21,6.4,6.21,15.32V506.9a70.94,70.94,0,0,0-11.42,6.8c-15.58,11.39-25.79,27.56-27.33,43.26-.65,6.6.89,16.17,7.36,21.4a13.58,13.58,0,0,0,12.32,2.91c7.63-1.9,14-9.64,16.75-16,4.4-10.34,5-21.48,4.65-29.78V508.18a73.76,73.76,0,0,1,29.71-6.36l33.7,54.81c6.78,11.25,16.67,13.38,24.43,13.38l.39-.58c-2.14,0-4.07-1-6.4-3.29V517.86q2.69,1.82,5.17,3.8c22.84,18.18,32.86,49,24.94,76.59-8.68,30.27-38.65,52.81-70.56,53.57,0-.36,0-.72.08-1.07h-.1V539a3.75,3.75,0,0,1-.16-1c-.09-3.84-1.9-6.6-3.81-9H526.2l-.27.58c3.6,2.13,4.27,6.4,4.27,15.32v92.3c0,7.49-.48,11.69-2.76,14.11l-.1,0-.16,0-.1.13a10,10,0,0,1-1.22,1.41l-.39.37.53.09a102.59,102.59,0,0,0,10.61.73h1.49a78.74,78.74,0,0,0,45.54-15.17c14.14-10.2,24.38-24.4,28.85-40A73.45,73.45,0,0,0,611.53,555.55ZM496.39,537.3c.21,7.84-.6,17.83-4.54,27.1-2.52,5.91-8.37,13.05-15.29,14.78a11.51,11.51,0,0,1-10.44-2.49c-5.43-4.39-7.22-13-6.57-19.52,1.47-15.1,11.36-30.7,26.45-41.73a69,69,0,0,1,10.15-6.16S496.31,537.35,496.39,537.3Zm2.09-31.46V453.47l28.43,46.27A76.34,76.34,0,0,0,498.48,505.84ZM578,563.61a71.18,71.18,0,0,1-6.2-9.11l-31.47-51.92A94.21,94.21,0,0,1,578,516.33Z"/></svg>