<svg id="Capa_1" data-name="Capa 1" xmlns="http://www.w3.org/2000/svg" viewBox="0 0 1080 1080"><defs><style>.cls-1{fill:#331d21;}.cls-2{fill:#e8e3dd;}</style></defs><rect class="cls-1" width="1080" height="1080"/><path class="cls-2" d="M396.76,551.92c0,5.61-2.68,8.06-6.52,8.06s-6.53-2.45-6.53-8.06,2.68-8.12,6.53-8.12S396.76,546.26,396.76,551.92Zm-11.4,0c0,3.91,1.21,6.68,4.88,6.68s4.87-2.77,4.87-6.68-1.21-6.73-4.87-6.73S385.36,548,385.36,551.92Z"/><path class="cls-2" d="M407.69,556c.16,1.61,1.43,2.64,4,2.64,3.09,0,4.78-1.83,4.9-6.91l0,0a5.33,5.33,0,0,1-4.85,2.88c-3.64,0-6.05-1.92-6.05-5.39s2.72-5.34,6.05-5.34c3.76,0,6.42,1.93,6.42,7.56,0,5.16-1.93,8.62-6.42,8.62-3.86,0-5.47-2-5.65-4Zm4-10.77c-2.43,0-4.4,1.47-4.4,4,0,2.25,1.63,4,4.4,4,3.64,0,4.49-2.41,4.49-3.93C416.18,547.31,414.91,545.19,411.69,545.19Z"/><path class="cls-2" d="M390.55,577.26h-4.83V576h1.1c2.59,0,3.53-.34,4-3h1.38l0,15.82h-1.66Z"/><path class="cls-2" d="M415.89,581.17c0,5.61-2.68,8.07-6.52,8.07s-6.53-2.46-6.53-8.07,2.68-8.11,6.53-8.11S415.89,575.51,415.89,581.17Zm-11.39,0c0,3.91,1.2,6.68,4.87,6.68s4.87-2.77,4.87-6.68-1.21-6.73-4.87-6.73S404.5,577.21,404.5,581.17Z"/><path class="cls-2" d="M674,559.63H661.85c.18-1.81.71-3.74,5.47-6.24,3.54-1.85,4.79-2.73,4.79-4.83,0-2.3-1.48-3.37-4-3.37-3.53,0-4.27,2.14-4.33,4.22h-1.66c0-3.93,2.35-5.61,6-5.61,4.23,0,5.59,2.53,5.59,4.79,0,2.7-1.7,3.82-3.86,5-4.41,2.4-5.61,3.2-6,4.5h10.06Z"/><path class="cls-2" d="M696.29,551.92c0,5.61-2.68,8.06-6.53,8.06s-6.52-2.45-6.52-8.06,2.68-8.12,6.52-8.12S696.29,546.26,696.29,551.92Zm-11.4,0c0,3.91,1.21,6.68,4.87,6.68s4.88-2.77,4.88-6.68-1.21-6.73-4.88-6.73S684.89,548,684.89,551.92Z"/><path class="cls-2" d="M674,588.88H661.85c.18-1.81.71-3.73,5.47-6.24,3.54-1.85,4.79-2.72,4.79-4.82,0-2.31-1.48-3.38-4-3.38-3.53,0-4.27,2.15-4.33,4.22h-1.66c0-3.93,2.35-5.6,6-5.6,4.23,0,5.59,2.52,5.59,4.78,0,2.7-1.7,3.82-3.86,5-4.41,2.39-5.61,3.19-6,4.49h10.06Z"/><path class="cls-2" d="M693.94,577.08c-.15-1.61-1.43-2.64-4-2.64-3.06,0-4.78,1.86-4.89,6.91l0,0a5.34,5.34,0,0,1,4.85-2.88c3.65,0,6.06,1.92,6.06,5.38s-2.73,5.35-6.06,5.35c-3.75,0-6.41-1.93-6.41-7.56,0-5.16,1.92-8.62,6.41-8.62,3.87,0,5.48,2,5.66,4Zm-4,10.77c2.44,0,4.41-1.47,4.41-4,0-2.21-1.64-4-4.41-4-3.64,0-4.49,2.42-4.49,3.94C685.45,585.73,686.72,587.85,689.94,587.85Z"/><path class="cls-2" d="M625.7,548.25a87.11,87.11,0,0,0-28.51-41.05q-3.63-2.88-7.51-5.45V436.52c0-10.29,1.12-15.21,7.16-17.67l-.45-.68H580.28l-.45.68c6,2.46,7.16,7.38,7.16,17.67V500a108.92,108.92,0,0,0-45.08-15.59l-40.16-66.28H485.87l-.45.68c6,2.46,7.16,7.38,7.16,17.67v55.6A81.85,81.85,0,0,0,479.4,500c-18,13.13-29.75,31.79-31.52,49.9-.75,7.62,1,18.66,8.49,24.7a15.66,15.66,0,0,0,14.21,3.35c8.81-2.19,16.19-11.12,19.32-18.49,5.08-11.93,5.82-24.78,5.37-34.36V493.59a85.17,85.17,0,0,1,34.28-7.33l38.87,63.24c7.83,13,19.24,15.44,28.19,15.44l.45-.67c-2.46,0-4.7-1.12-7.38-3.81v-55.7c2.06,1.4,4.05,2.87,6,4.39,26.35,21,37.91,56.48,28.77,88.37-10,34.91-44.58,60.92-81.4,61.8,0-.42,0-.83.1-1.23H543v-129a4.51,4.51,0,0,1-.17-1.17c-.11-4.42-2.2-7.62-4.4-10.34H527.25l-.31.67c4.15,2.46,4.92,7.38,4.92,17.68V642.43c0,8.64-.55,13.48-3.18,16.27h-.12l-.18,0-.11.15a11.23,11.23,0,0,1-1.41,1.62l-.45.43.61.1a117.82,117.82,0,0,0,12.24.85l1.72,0c18.23,0,36.89-6.22,52.54-17.51,16.31-11.77,28.13-28.15,33.28-46.12A84.64,84.64,0,0,0,625.7,548.25ZM492.86,527.19c.24,9-.69,20.57-5.24,31.27-2.9,6.82-9.66,15.06-17.64,17a13.24,13.24,0,0,1-12.05-2.88c-6.26-5.06-8.32-15-7.58-22.52,1.7-17.41,13.11-35.41,30.52-48.14a80.94,80.94,0,0,1,11.71-7.11S492.77,527.25,492.86,527.19Zm2.41-36.29V430.48l32.8,53.38A88.13,88.13,0,0,0,495.27,490.9ZM587,557.55A84,84,0,0,1,579.83,547l-36.29-59.91A108.89,108.89,0,0,1,587,503Z"/></svg>