<svg id="Capa_1" data-name="Capa 1" xmlns="http://www.w3.org/2000/svg" viewBox="0 0 306.38 377.87"><defs><style>.cls-1{fill:#65232d;}</style></defs><path class="cls-1" d="M147.43,342.36a122.14,122.14,0,0,1-122-122V155.06a122,122,0,1,1,244,0v65.31A122.14,122.14,0,0,1,147.43,342.36Zm0-308.2a121,121,0,0,0-120.9,120.9v65.31a120.9,120.9,0,0,0,241.79,0V155.06A121,121,0,0,0,147.43,34.16Z"/><path class="cls-1" d="M149.14,352.61h-3.43c-72.84,0-132.1-59.26-132.1-132.1V154.92c0-72.84,59.26-132.1,132.1-132.1h3.43c72.84,0,132.1,59.26,132.1,132.1v65.59C281.24,293.35,222,352.61,149.14,352.61ZM145.71,27.13A127.93,127.93,0,0,0,17.93,154.92v65.59A127.92,127.92,0,0,0,145.71,348.29h3.43A127.92,127.92,0,0,0,276.92,220.51V154.92A127.93,127.93,0,0,0,149.14,27.13Z"/><path class="cls-1" d="M219,203.26a75.43,75.43,0,0,0-24.7-35.58q-3.15-2.51-6.52-4.72V106.42c0-8.92,1-13.19,6.21-15.32l-.39-.58h-14l-.39.58c5.24,2.13,6.21,6.4,6.21,15.32v55.05A94.62,94.62,0,0,0,146.33,148l-34.8-57.44H97.76l-.39.58c5.24,2.13,6.21,6.4,6.21,15.32v48.19a71.47,71.47,0,0,0-11.43,6.8C76.58,172.8,66.36,189,64.83,204.67c-.65,6.61.89,16.17,7.36,21.4A13.57,13.57,0,0,0,84.51,229c7.63-1.9,14-9.64,16.75-16,4.4-10.35,5-21.49,4.64-29.79V155.89a73.81,73.81,0,0,1,29.72-6.36l33.69,54.82c6.79,11.24,16.68,13.38,24.44,13.38l.38-.59c-2.13,0-4.07-1-6.4-3.29V165.57q2.69,1.81,5.18,3.8c22.83,18.18,32.85,49,24.93,76.6-8.67,30.26-38.64,52.8-70.56,53.56,0-.36,0-.72.09-1.06h-.11V186.66a3.77,3.77,0,0,1-.15-1c-.09-3.84-1.9-6.6-3.81-9h-9.67l-.27.58c3.59,2.13,4.26,6.4,4.26,15.32v92.3c0,7.49-.48,11.69-2.75,14.11h-.11l-.16,0-.09.13a10,10,0,0,1-1.22,1.41l-.4.37.54.09a102.59,102.59,0,0,0,10.61.73h1.49a78.71,78.71,0,0,0,45.54-15.17c14.13-10.2,24.38-24.4,28.84-40A73.29,73.29,0,0,0,219,203.26ZM103.82,185c.21,7.84-.6,17.83-4.55,27.1C96.76,218,90.9,225.17,84,226.89a11.53,11.53,0,0,1-10.45-2.49c-5.43-4.39-7.21-13-6.57-19.52,1.48-15.1,11.37-30.7,26.45-41.73A70,70,0,0,1,103.58,157S103.74,185.06,103.82,185Zm2.08-31.45V101.18l28.44,46.27A76.25,76.25,0,0,0,105.9,153.56Zm79.51,57.77a73.12,73.12,0,0,1-6.21-9.12l-31.46-51.92A94.26,94.26,0,0,1,185.41,164Z"/></svg>